<svg xmlns="http://www.w3.org/2000/svg" viewBox="0 0 73.129 69.344"><defs><style>.a,.c{fill:#fff;}.b{fill:#141519;}.c{font-size:9px;font-family:Spectral-Italic, Spectral;font-style:italic;letter-spacing:0.08em;}</style></defs><g transform="translate(-974.653 -561.722)"><g transform="translate(-59)"><path class="a" d="M1070.472,583.036a15.255,15.255,0,0,1-9.447-3.693,21.051,21.051,0,0,1-5.031-5.635,2.148,2.148,0,0,1-.05-2.444c2.75-4.351,6.337-7.677,11.394-9.123a11.868,11.868,0,0,1,9.492,1.534,22.07,22.07,0,0,1,7.292,6.894,2.97,2.97,0,0,1,.016,3.738c-2.949,4.189-6.634,7.342-11.765,8.488A16.876,16.876,0,0,1,1070.472,583.036Zm-7.969-10.7a7.715,7.715,0,1,0,7.656-7.7A7.727,7.727,0,0,0,1062.5,572.336Z"/></g><path class="a" d="M1066.314,570.578l3.88,1.8-1.418-3.975a4.09,4.09,0,0,1,4.913,1.456,4.3,4.3,0,0,1-.418,5.551,4.37,4.37,0,0,1-5.494.541A4.3,4.3,0,0,1,1066.314,570.578Z" transform="translate(-59)"/><rect class="b" width="73.129" height="26.551" rx="1.799" transform="translate(974.653 604.515)"/><path class="b" d="M1070.217,610.047l-4.532-5.532,4.532-5.533,4.533,5.533Z" transform="translate(-59)"/><text class="c" transform="translate(1011.217 621.009)"><tspan x="-25.097" y="0">Prototyping</tspan></text></g></svg>