<svg xmlns="http://www.w3.org/2000/svg" viewBox="0 0 73.129 70.012"><defs><style>.a,.c{fill:#fff;}.b{fill:#141519;}.c{font-size:9px;font-family:Spectral-Italic, Spectral;font-style:italic;letter-spacing:0.08em;}</style></defs><g transform="translate(-867.119 -561.054)"><g transform="translate(-59)"><path class="a" d="M951.768,572.39c0-3.506.014-7.012-.012-10.518,0-.628.194-.817.818-.816q10.105.028,20.21,0c.68,0,.84.227.838.866q-.028,10.48,0,20.961c0,.628-.2.823-.819.821q-10.1-.026-20.208,0c-.679,0-.843-.232-.839-.872C951.782,579.352,951.768,575.871,951.768,572.39Zm.823,10.535h20.186V564.071H952.591Zm1.921-19.822h18.273v-1.175H954.512Zm-1.9-1.144v1.164h.975v-1.164Z"/></g><g transform="translate(-59)"><path class="a" d="M959.192,575.54c-1.6,0-3.2-.019-4.8.01-.545.009-.757-.159-.753-.721q.025-4.392,0-8.783c0-.572.213-.794.8-.79q4.8.03,9.609,0c.617,0,.836.2.831.825-.023,2.878-.028,5.756,0,8.634.007.683-.255.85-.885.837C962.4,575.518,960.794,575.54,959.192,575.54Zm4.837-8.868-4.153,3.757,4.153,3.777Zm-5.377,3.75-4.106-3.7v7.445Zm.628.566-4.072,3.705h8.117Zm4.044-4.8H955.2l4.048,3.67Z"/></g><g transform="translate(-59)"><path class="a" d="M966.006,581.676c-1.578,0-3.157-.014-4.734.008-.55.008-.765-.2-.754-.748.023-1.2.025-2.4,0-3.607-.011-.563.228-.746.764-.744q4.735.018,9.47,0c.522,0,.717.215.712.718q-.02,1.842,0,3.683c.005.513-.2.706-.723.7C969.163,581.662,967.584,581.676,966.006,581.676Zm4.61-4.181h-9.2v3.368h9.2Z"/></g><g transform="translate(-59)"><path class="a" d="M956.387,581.7c-.7,0-1.4-.016-2.1.005-.439.014-.65-.145-.647-.6.008-1.3.006-2.6,0-3.9,0-.416.2-.573.6-.57q2.136.016,4.273,0c.483,0,.664.2.657.678-.018,1.224-.026,2.45,0,3.673.014.577-.234.74-.766.717C957.738,581.672,957.062,581.7,956.387,581.7Zm-1.863-.845h3.809v-3.38h-3.809Z"/></g><path class="a" d="M971.336,565.335v.733H966.43l-.044-.733Z" transform="translate(-59)"/><path class="a" d="M971.322,569.116v.759H966.44l-.053-.759Z" transform="translate(-59)"/><path class="a" d="M971.335,575.55h-4.893v-.758h4.893Z" transform="translate(-59)"/><path class="a" d="M971.362,567.974h-4.926v-.719h4.89Z" transform="translate(-59)"/><path class="a" d="M971.321,571.027v.708h-4.887v-.708Z" transform="translate(-59)"/><path class="a" d="M971.325,572.939l.043.713h-4.93v-.713Z" transform="translate(-59)"/><rect class="b" width="73.129" height="26.551" rx="1.799" transform="translate(867.119 604.515)"/><path class="b" d="M962.684,610.047l-4.533-5.532,4.533-5.533,4.533,5.533Z" transform="translate(-59)"/><text class="c" transform="translate(903.684 621.009)"><tspan x="-26.896" y="0">Wireframing</tspan></text></g></svg>