<svg xmlns="http://www.w3.org/2000/svg" xmlns:xlink="http://www.w3.org/1999/xlink" viewBox="0 0 36.446 43.553"><defs><style>.a{fill:#fff;}.b{opacity:0.5;fill:url(#a);}.c{opacity:0.7;fill:url(#c);}</style><linearGradient id="a" x1="-0.842" y1="1.375" x2="1.461" y2="-0.126" gradientUnits="objectBoundingBox"><stop offset="0.195" stop-opacity="0"/><stop offset="1"/></linearGradient><linearGradient id="c" x1="0.792" y1="0.495" x2="-0.243" y2="0.512" gradientUnits="objectBoundingBox"><stop offset="0.365" stop-opacity="0"/><stop offset="0.829"/></linearGradient></defs><g transform="translate(-60.672 -76.372)"><path class="a" d="M94.494,99.09A14.456,14.456,0,0,0,82.655,76.372H76.486v8.243h6.169a6.195,6.195,0,0,1,0,12.389H76.486v5.53l10.546,15.1H97.118L87.8,104.3A14.288,14.288,0,0,0,94.494,99.09Z"/><path class="b" d="M80.064,78.66l-3.578-2.289V78.66Z"/><path class="b" d="M80.064,99.293,76.486,97v2.289Z"/><path class="a" d="M80.064,78.66V86.9H68.94v12.39H80.064v8.243H68.94v12.389H60.672V78.66Z"/><path class="c" d="M94.494,99.09A14.456,14.456,0,0,0,82.655,76.372H76.486l3.578,2.288v5.955h2.591a6.195,6.195,0,0,1,0,12.389H76.486l3.578,2.289v8.243h-.085l7.053,10.1H97.118L87.8,104.3A14.288,14.288,0,0,0,94.494,99.09Z"/></g></svg>