<svg xmlns="http://www.w3.org/2000/svg" viewBox="0 0 32.6 32.6"><defs><style>.cls-1{fill:#d6d6d6;}</style></defs><g id="Layer_2" data-name="Layer 2"><g id="Capa_1" data-name="Capa 1"><path class="cls-1" d="M22.3,7.7a1.45,1.45,0,1,0,1.44,1.45A1.45,1.45,0,0,0,22.3,7.7Z"/><path class="cls-1" d="M22,15.76a5.42,5.42,0,1,1-9-4H8.84v9.58a2.21,2.21,0,0,0,2.22,2.22H21.49a2.21,2.21,0,0,0,2.21-2.22V11.75H20.17A5.41,5.41,0,0,1,22,15.76Z"/><path class="cls-1" d="M16.54,18.27A2.51,2.51,0,1,0,14,15.76,2.51,2.51,0,0,0,16.54,18.27Z"/><path class="cls-1" d="M16.3,0A16.3,16.3,0,1,0,32.6,16.3,16.3,16.3,0,0,0,16.3,0Zm9.94,23.17a3.06,3.06,0,0,1-3.06,3.06H9.43a3.06,3.06,0,0,1-3.06-3.06V9.43A3.06,3.06,0,0,1,9.43,6.37H23.18a3.06,3.06,0,0,1,3.06,3.06Z"/></g></g></svg>