<svg xmlns="http://www.w3.org/2000/svg" viewBox="0 0 31.98 31.98"><defs><style>.cls-1{fill:#d6d6d6;}</style></defs><g id="Layer_2" data-name="Layer 2"><g id="Capa_1" data-name="Capa 1"><path class="cls-1" d="M16,0A16,16,0,1,0,32,16,16,16,0,0,0,16,0Zm7.3,12.47c0,.16,0,.31,0,.47A10.38,10.38,0,0,1,12.86,23.39h0a10.44,10.44,0,0,1-5.63-1.65,8.49,8.49,0,0,0,.88.05,7.4,7.4,0,0,0,4.56-1.57,3.67,3.67,0,0,1-3.43-2.55,3.85,3.85,0,0,0,.69.06,3.49,3.49,0,0,0,1-.13A3.67,3.67,0,0,1,8,14v0a3.75,3.75,0,0,0,1.66.46A3.68,3.68,0,0,1,8,11.36a3.6,3.6,0,0,1,.5-1.84A10.4,10.4,0,0,0,16,13.35a3.84,3.84,0,0,1-.09-.83A3.67,3.67,0,0,1,22.3,10a7.55,7.55,0,0,0,2.33-.89,3.78,3.78,0,0,1-1.61,2,7.34,7.34,0,0,0,2.1-.58A7.51,7.51,0,0,1,23.29,12.47Z"/></g></g></svg>