<svg xmlns="http://www.w3.org/2000/svg" viewBox="0 0 31.93 31.93"><defs><style>.cls-1{fill:#d6d6d6;}</style></defs><g id="Layer_2" data-name="Layer 2"><g id="Capa_1" data-name="Capa 1"><path class="cls-1" d="M16,0a16,16,0,1,0,16,16A16,16,0,0,0,16,0ZM23.4,23.13a1.05,1.05,0,0,1-.89.49,1,1,0,0,1-.56-.16c-5.88-3.7-14-1.63-14.09-1.61a1.05,1.05,0,0,1-.54-2c.37-.09,9.08-2.32,15.74,1.86A1.06,1.06,0,0,1,23.4,23.13Zm2-4.5a1.23,1.23,0,0,1-1.08.65,1.18,1.18,0,0,1-.57-.15,21.92,21.92,0,0,0-16.2-1.92,1.22,1.22,0,0,1-.8-2.31A24.08,24.08,0,0,1,24.92,17,1.22,1.22,0,0,1,25.42,18.63Zm1-4.08a1.46,1.46,0,0,1-.72-.19c-8.61-4.79-18.84-2-18.94-2a1.48,1.48,0,1,1-.79-2.86c.46-.13,11.51-3.1,21.18,2.29a1.48,1.48,0,0,1-.73,2.78Z"/></g></g></svg>