<svg xmlns="http://www.w3.org/2000/svg" viewBox="0 0 132.02 83.43"><defs><style>.cls-1{fill:#fff;}.cls-2{fill:#70bee7;}.cls-3{fill:#0e63ab;}</style></defs><g id="Layer_2" data-name="Layer 2"><g id="Capa_1" data-name="Capa 1"><rect class="cls-1" width="132.02" height="83.43" rx="12.1"/><path class="cls-2" d="M90,25c-5.34,0-22.76-.36-22.76-5.08S84.62,14.81,90,14.81s22.78.36,22.78,5.07S95.31,25,90,25Zm-20-5.08c2,1.11,9.4,2.45,20,2.45s18-1.34,20-2.45c-2-1.1-9.4-2.45-20-2.45S71.94,18.78,69.93,19.88Z"/><g id="_8y3Nyq.tif" data-name="8y3Nyq.tif"><path class="cls-3" d="M15.35,14H61.44V25.29H36.53V36.54H60.14V47.9H36.52V68H15.35Z"/><path class="cls-3" d="M116.45,52.2H83.17c-1.06,4.36,1.6,8.76,5.56,9.2a12.44,12.44,0,0,0,3.89-.3A4.64,4.64,0,0,0,95.87,58c.14-.35.58-.79.88-.79,6.34,0,12.67,0,19,0a1.1,1.1,0,0,1,.29.11,7.88,7.88,0,0,1-1.39,4c-2,3.1-5,4.71-8.2,5.85-5.88,2.1-12,2.44-18.11,2.3a37.87,37.87,0,0,1-14.53-2.8C67.69,64,63.67,59.32,63,52c-.92-10.3,3.24-17.49,12.38-20.69a41.84,41.84,0,0,1,29.07.2c8.51,3.16,12.87,10.77,12.11,20.36A1.3,1.3,0,0,1,116.45,52.2ZM83.08,44.87H96.51c.07-5.3-2.73-8.21-7.44-7.9C85.23,37.21,82.53,40.78,83.08,44.87Z"/></g></g></g></svg>