<svg xmlns="http://www.w3.org/2000/svg" xmlns:xlink="http://www.w3.org/1999/xlink" viewBox="0 0 246.4 83.43"><defs><style>.cls-1{fill:none;}.cls-2,.cls-3{fill:#02093d;}.cls-2{fill-rule:evenodd;}.cls-4{fill:#e78e37;}.cls-5{clip-path:url(#clip-path);}.cls-6{fill:url(#Degradado_sin_nombre_5);}.cls-7{clip-path:url(#clip-path-2);}.cls-8{fill:url(#Degradado_sin_nombre_6);}.cls-9{clip-path:url(#clip-path-3);}.cls-10{fill:url(#Degradado_sin_nombre_10);}.cls-11{clip-path:url(#clip-path-4);}.cls-12{fill:url(#Degradado_sin_nombre_10-2);}.cls-13{clip-path:url(#clip-path-5);}.cls-14{fill:url(#Degradado_sin_nombre_10-3);}.cls-15{clip-path:url(#clip-path-6);}.cls-16{fill:url(#Degradado_sin_nombre_10-4);}.cls-17{fill:#fff;}.cls-18{fill:#70bfe8;}.cls-19{fill:#0e63ac;}</style><clipPath id="clip-path"><path class="cls-1" d="M173.46,19.82v1.37h-4.78v8h4.78v20.6h16.73V29.16h8.14v-8h-8.14V19.82c0-2.9,1.93-4.26,5.23-4.26a12,12,0,0,1,3.42.34V8.44a60.18,60.18,0,0,0-9.9-.85c-12.58,0-15.48,4.55-15.48,12.23"/></clipPath><linearGradient id="Degradado_sin_nombre_5" x1="-262.88" y1="1051.86" x2="-261.88" y2="1051.86" gradientTransform="matrix(0, 42.17, 42.17, 0, -44171.27, 11092.84)" gradientUnits="userSpaceOnUse"><stop offset="0" stop-color="#51a9c4"/><stop offset="0.28" stop-color="#51a9c4"/><stop offset="0.37" stop-color="#4c9fbc"/><stop offset="0.54" stop-color="#4592b0"/><stop offset="0.66" stop-color="#3f89a5"/><stop offset="0.86" stop-color="#367c96"/><stop offset="1" stop-color="#367c96"/></linearGradient><clipPath id="clip-path-2"><path class="cls-1" d="M220.06,26.14c3.81,0,5.58,2.45,5.58,6.15H214.48c0-3.76,2-6.15,5.58-6.15m-22,9.5c0,10.82,9,15.2,22.42,15.2,14.74,0,20.61-4.55,21.12-9.33H225.24c-.46,1.82-1.77,3.3-5,3.3-3.81,0-5.75-2.22-5.75-7.06H242V36.21c0-12.63-11-16.1-22-16.1-12.63,0-22,4.44-22,15.53"/></clipPath><linearGradient id="Degradado_sin_nombre_6" x1="-229.69" y1="1051.45" x2="-228.69" y2="1051.45" gradientTransform="matrix(0, 30.73, 30.73, 0, -32090.59, 7078.51)" gradientUnits="userSpaceOnUse"><stop offset="0" stop-color="#e4722e"/><stop offset="0.61" stop-color="#e4722e"/><stop offset="0.94" stop-color="#d94926"/><stop offset="1" stop-color="#d94926"/></linearGradient><clipPath id="clip-path-3"><path class="cls-1" d="M187.53,51.78a3.55,3.55,0,0,0-2.31,1.82c-1.12,1.67-2.55,3.74-4.25,6.19l-.42-3.19a6.58,6.58,0,0,0-.42-1.75l0,0c-.55-1.06-1.74-1.48-3.55-1.24-.61.08-2.46.32-3,1.66a3.24,3.24,0,0,0-.24,1.14,9.9,9.9,0,0,0,.09,1.13l2.11,16.13a5.45,5.45,0,0,0,.47,1.76,2.62,2.62,0,0,0,2.62,1.34,7.43,7.43,0,0,0,.91-.06c.61-.08,2.46-.33,3-1.67a3.23,3.23,0,0,0,.24-1.12,10.9,10.9,0,0,0-.09-1.15l-.43-3.28,5.69,4.86a3.62,3.62,0,0,0,2.72,1.2A4.17,4.17,0,0,0,193,74a3.41,3.41,0,0,0,1.2-2.64,3.75,3.75,0,0,0-1.53-2.26c-1.36-1.18-3.57-2.87-6.58-5l.42-.5c2.14-2.59,3.73-4.65,4.73-6.12a3.69,3.69,0,0,0,.81-2.5,3.39,3.39,0,0,0-1.84-2.24,4.63,4.63,0,0,0-2.42-.9,1.37,1.37,0,0,0-.29,0"/></clipPath><linearGradient id="Degradado_sin_nombre_10" x1="-201.47" y1="1051.1" x2="-200.47" y2="1051.1" gradientTransform="matrix(0, 24.97, 24.97, 0, -26062.36, 5082.59)" gradientUnits="userSpaceOnUse"><stop offset="0" stop-color="#48986f"/><stop offset="0.24" stop-color="#48986f"/><stop offset="0.51" stop-color="#418c6a"/><stop offset="0.84" stop-color="#3b8066"/><stop offset="1" stop-color="#3b8066"/></linearGradient><clipPath id="clip-path-4"><path class="cls-1" d="M197.28,56.5a2.76,2.76,0,0,0-.34,1,8,8,0,0,0,0,1V72.1a4.81,4.81,0,0,0,.19,1.55c.24.71.93,1.55,2.89,1.55.53,0,2.13,0,2.73-1.15a3,3,0,0,0,.33-.94,7.88,7.88,0,0,0,.05-1V58.46a6,6,0,0,0-.16-1.54l0-.05c-.24-.69-.95-1.52-2.91-1.52-.52,0-2.13,0-2.72,1.15"/></clipPath><linearGradient id="Degradado_sin_nombre_10-2" x1="-162.66" y1="1050.62" x2="-161.66" y2="1050.62" gradientTransform="matrix(0, 19.85, 19.85, 0, -20657.61, 3284.6)" xlink:href="#Degradado_sin_nombre_10"/><clipPath id="clip-path-5"><path class="cls-1" d="M212.48,60.78l1.47-.45a3.78,3.78,0,0,1,3,.33,3.92,3.92,0,0,1,2,2.46,4,4,0,0,1-2.56,5l-1.51.46Zm-.38-6.7-4.56,1.35h0c-.52.16-2.12.64-2.35,2a3.4,3.4,0,0,0,0,1,10.19,10.19,0,0,0,.26,1l4.26,14.06a4.35,4.35,0,0,0,1,1.94,2.19,2.19,0,0,0,1.51.53,4.63,4.63,0,0,0,1.44-.26l4.5-1.36a9.83,9.83,0,0,0,6.12-5.15,10.6,10.6,0,0,0,.7-8.1,10.07,10.07,0,0,0-5.12-6.23A10.49,10.49,0,0,0,215,53.65a10,10,0,0,0-2.89.43"/></clipPath><linearGradient id="Degradado_sin_nombre_10-3" x1="-183.82" y1="1050.89" x2="-182.82" y2="1050.89" gradientTransform="matrix(0, 22.35, 22.35, 0, -23271.01, 4161.77)" xlink:href="#Degradado_sin_nombre_10"/><clipPath id="clip-path-6"><path class="cls-1" d="M229,55.11a6.6,6.6,0,0,0-2.46,4.63,7,7,0,0,0,.51,3.48A5.4,5.4,0,0,0,229,65.55a16.66,16.66,0,0,0,4.56,2.1,3.66,3.66,0,0,1,1.22.52.7.7,0,0,1,0,1.22c-1.46.92-3-1-3-1-1-1.2-1.84-1.8-2.61-1.86a3,3,0,0,0-2.16.73,3.75,3.75,0,0,0-1.65,2.35,3.47,3.47,0,0,0,.72,2.22l.2.29a7.48,7.48,0,0,0,2.07,2.08,7.31,7.31,0,0,0,2,1.07,10.2,10.2,0,0,0,2.62.58q.4,0,.81,0a9.45,9.45,0,0,0,4.5-1.16,6.3,6.3,0,0,0,2.37-2.23A7.57,7.57,0,0,0,241.78,69a6.75,6.75,0,0,0-.51-3.49,4.92,4.92,0,0,0-1.94-2.25A15.55,15.55,0,0,0,237,62.19a19.78,19.78,0,0,0-2.3-.72,2.7,2.7,0,0,1-1.31-.6.62.62,0,0,1,0-.87c.56-.5,1.63.12,2.57.81a3.76,3.76,0,0,0,1.83.85,3.32,3.32,0,0,0,2.8-1.52,3.69,3.69,0,0,0,1-1.93,2.89,2.89,0,0,0-1-2.1l-.71-.65a7.88,7.88,0,0,0-2-1.17,11,11,0,0,0-3.2-.74c-.31,0-.62,0-.91,0a7.17,7.17,0,0,0-4.74,1.6"/></clipPath><linearGradient id="Degradado_sin_nombre_10-4" x1="-183.85" y1="1050.88" x2="-182.85" y2="1050.88" gradientTransform="matrix(0, 22.35, 22.35, 0, -23257.66, 4163.28)" xlink:href="#Degradado_sin_nombre_10"/></defs><g id="Layer_2" data-name="Layer 2"><g id="Capa_1" data-name="Capa 1"><path class="cls-2" d="M169.09,52.51V35.15a1.62,1.62,0,0,0-1.62-1.62h-1.55a1.61,1.61,0,0,1-1.61-1.62V18.44a1.61,1.61,0,0,1,1.61-1.62h1.94a1.62,1.62,0,0,0,1.59-1.35C171,7.14,177.27,3.22,188.94,3.22a63.12,63.12,0,0,1,10.67.92l2.27.4a1.62,1.62,0,0,1,1.33,1.6V21.65l-.51-.14v10.4a1.61,1.61,0,0,1-1.62,1.62h-4.9a1.62,1.62,0,0,0-1.62,1.62V52.51a1.61,1.61,0,0,1-1.62,1.62H170.7a1.61,1.61,0,0,1-1.61-1.62"/><path class="cls-2" d="M220.51,55.21c-7.81,0-14-1.41-18.53-4.2-5.4-3.36-8.26-8.67-8.26-15.37,0-6,2.57-19.9,26.34-19.9,16.74,0,26.39,7.8,26.34,20.47a27.59,27.59,0,0,1-.44,5.91c-.83,4.15-4,13.09-25.45,13.09"/><path class="cls-3" d="M220.2,22.46a92.17,92.17,0,0,1-13.51-.89c-3.05-.48-10.2-1.6-10.2-7.8s7.15-7.32,10.2-7.8a103,103,0,0,1,27,0c3.06.48,10.21,1.6,10.21,7.8s-7.15,7.32-10.21,7.8a92.07,92.07,0,0,1-13.51.89"/><path class="cls-4" d="M220.2,18.09a87.09,87.09,0,0,1-12.83-.84c-4.63-.72-6.51-1.73-6.51-3.48s1.88-2.75,6.51-3.48a98.48,98.48,0,0,1,25.67,0c4.62.73,6.5,1.73,6.5,3.48s-1.88,2.76-6.5,3.48a87.14,87.14,0,0,1-12.84.84m-14.77-4.32A67.26,67.26,0,0,0,220.2,15,67.26,67.26,0,0,0,235,13.77,67.26,67.26,0,0,0,220.2,12.5a67.26,67.26,0,0,0-14.77,1.27"/><path class="cls-3" d="M178.64,81.1a7,7,0,0,1-6.52-3.73,9.54,9.54,0,0,1-.9-3.17l-2.11-16.13a11.8,11.8,0,0,1-.14-1.71,7.5,7.5,0,0,1,.54-2.69c.66-1.73,2.32-3.89,6.48-4.44a11.07,11.07,0,0,1,1.49-.1,7.65,7.65,0,0,1,4.57,1.39A7.37,7.37,0,0,1,187,47.44a6.11,6.11,0,0,1,.86-.06A8.8,8.8,0,0,1,192.59,49a7.56,7.56,0,0,1,3.83,5.36,7.94,7.94,0,0,1-1.53,5.52c-.63.93-1.46,2-2.49,3.37,1.29,1,2.34,1.82,3.14,2.51a8,8,0,0,1,3,5,7.54,7.54,0,0,1-2.32,6.16,8.29,8.29,0,0,1-5,2.92,5.79,5.79,0,0,1-.83.06,7.64,7.64,0,0,1-4.67-1.75,7.93,7.93,0,0,1-5.6,2.85,10.93,10.93,0,0,1-1.48.1"/><path class="cls-3" d="M200,79.58c-3.45,0-6.07-1.69-7-4.51a8.69,8.69,0,0,1-.44-3V58.43a11.1,11.1,0,0,1,.09-1.54,7.08,7.08,0,0,1,.8-2.43C194.1,53.15,195.86,51,200,51c3.43,0,6.05,1.66,7,4.44l.07.22v.06a9.63,9.63,0,0,1,.34,2.76V72.12a11.42,11.42,0,0,1-.09,1.58,6.93,6.93,0,0,1-.8,2.4c-.66,1.28-2.42,3.48-6.59,3.48"/><path class="cls-3" d="M212.21,80.37a6.47,6.47,0,0,1-4.48-1.69l-.07-.07a8.64,8.64,0,0,1-2.18-3.81l-4.25-14.07a11.51,11.51,0,0,1-.39-1.58,7.16,7.16,0,0,1,0-2.52c.27-1.5,1.33-4.15,5.38-5.38l4.58-1.36a14.28,14.28,0,0,1,4.14-.62A14.8,14.8,0,0,1,221.87,51a14.46,14.46,0,0,1,7.28,8.85,15,15,0,0,1-1,11.34,14.23,14.23,0,0,1-8.75,7.36l-4.49,1.36a9.42,9.42,0,0,1-2.71.44"/><path class="cls-3" d="M233.8,80.23c-.39,0-.79,0-1.19,0a14.49,14.49,0,0,1-3.75-.82,13.18,13.18,0,0,1-6.25-4.89l-.14-.2a7.73,7.73,0,0,1-1.47-5,7.21,7.21,0,0,1,2.06-4.28,11.3,11.3,0,0,1-.85-5.58,11,11,0,0,1,4-7.59,11.57,11.57,0,0,1,7.56-2.63c.42,0,.85,0,1.29,0a15.23,15.23,0,0,1,4.48,1.06A12,12,0,0,1,242.59,52l.14.11,1,.91.14.16a7,7,0,0,1,2.06,5.39,7.42,7.42,0,0,1-1.48,3.71,10.55,10.55,0,0,1,.79,1.4,11.18,11.18,0,0,1,.9,5.71,11.94,11.94,0,0,1-1.79,5.43,10.65,10.65,0,0,1-4,3.74,13.66,13.66,0,0,1-6.53,1.66"/><g class="cls-5"><rect class="cls-6" x="168.68" y="7.59" width="30.16" height="42.17"/></g><g class="cls-7"><rect class="cls-8" x="198.09" y="20.11" width="43.93" height="30.73"/></g><g class="cls-9"><rect class="cls-10" x="173.35" y="51.76" width="20.99" height="24.97"/></g><g class="cls-11"><rect class="cls-12" x="196.9" y="55.35" width="6.19" height="19.85"/></g><g class="cls-13"><rect class="cls-14" x="205.1" y="53.65" width="20.71" height="22.35"/></g><g class="cls-15"><rect class="cls-16" x="225.3" y="53.51" width="16.6" height="22.35"/></g><rect class="cls-17" width="132.02" height="83.43" rx="12.1"/><path class="cls-18" d="M90,25c-5.34,0-22.76-.36-22.76-5.08S84.62,14.81,90,14.81s22.78.36,22.78,5.07S95.31,25,90,25Zm-20-5.08c2,1.11,9.4,2.45,20,2.45s18-1.34,20-2.45c-2-1.1-9.4-2.45-20-2.45S71.94,18.78,69.93,19.88Z"/><g id="_8y3Nyq.tif" data-name="8y3Nyq.tif"><path class="cls-19" d="M15.35,14H61.44V25.29H36.53V36.54H60.14V47.9H36.52V68H15.35Z"/><path class="cls-19" d="M116.45,52.2H83.17c-1.06,4.36,1.6,8.76,5.56,9.2a12.44,12.44,0,0,0,3.89-.3A4.64,4.64,0,0,0,95.87,58c.14-.35.58-.79.88-.79,6.34,0,12.67,0,19,0a1.1,1.1,0,0,1,.29.11,7.88,7.88,0,0,1-1.39,4c-2,3.1-5,4.71-8.2,5.85-5.88,2.1-12,2.44-18.11,2.3a37.87,37.87,0,0,1-14.53-2.8C67.69,64,63.67,59.32,63,52c-.92-10.3,3.24-17.49,12.38-20.69a41.84,41.84,0,0,1,29.07.2c8.51,3.16,12.87,10.77,12.11,20.36A1.3,1.3,0,0,1,116.45,52.2ZM83.08,44.87H96.51c.07-5.3-2.73-8.21-7.44-7.9C85.23,37.21,82.53,40.78,83.08,44.87Z"/></g></g></g></svg>