<?xml version="1.0" encoding="iso-8859-1"?>
<!-- Generator: Adobe Illustrator 19.0.0, SVG Export Plug-In . SVG Version: 6.00 Build 0)  -->
<svg xmlns="http://www.w3.org/2000/svg" xmlns:xlink="http://www.w3.org/1999/xlink" version="1.1" id="Capa_1" x="0px" y="0px" viewBox="0 0 469.333 469.333" style="enable-background:new 0 0 469.333 469.333;" xml:space="preserve" width="512px" height="512px">
<g>
	<g>
		<path d="M469.333,117.333C469.333,76.971,372.96,32,234.667,32S0,76.981,0,117.333c0,38.251,86.645,80.48,213.333,84.832v137.707    c-1.194,3.772-2.696,7.439-4.491,10.965c-1.064,0.54-2.21,0.9-3.392,1.067c-12.373,1.451-30.069-17.664-36.661-27.264    c-3.329-4.86-9.966-6.101-14.827-2.773c-2.855,2.01-4.523,5.309-4.448,8.8h-0.181v10.667h0.203    c-0.078,2.127,0.5,4.227,1.653,6.016c2.069,3.019,16.331,23.136,35.115,32.203c-13.163,11.328-32.32,21.685-59.925,25.899    c-5.161,0.831-8.93,5.323-8.853,10.549h-0.192v10.667h0.203c-0.068,0.534-0.093,1.073-0.075,1.611    c0.795,5.207,5.272,9.053,10.539,9.056c0.543,0.001,1.085-0.038,1.621-0.117c56.779-8.672,83.595-39.637,95.691-61.163    c3.608-3.122,6.757-6.739,9.355-10.741c2.601,4.003,5.753,7.62,9.365,10.741c12.085,21.525,38.912,52.491,95.691,61.163    c0.533,0.079,1.072,0.118,1.611,0.117c5.263-0.008,9.733-3.853,10.528-9.056c0.018-0.538-0.007-1.077-0.075-1.611H352V416h-0.203    c0.077-5.227-3.693-9.718-8.853-10.549c-27.733-4.267-46.859-14.571-60.011-25.867c18.827-9.045,33.141-29.216,35.2-32.245    c1.159-1.787,1.74-3.887,1.664-6.016H320v-10.656h-0.192c0.076-3.497-1.596-6.801-4.459-8.811    c-4.864-3.323-11.502-2.073-14.824,2.791c-0.001,0.001-0.001,0.002-0.002,0.003c-6.539,9.6-24.149,28.875-36.64,27.253    c-1.218-0.155-2.401-0.516-3.499-1.067c-1.763-3.52-3.23-7.18-4.384-10.944V202.219    C382.699,197.867,469.333,155.605,469.333,117.333z" fill="#fc6900"/>
	</g>
</g>
<g>
</g>
<g>
</g>
<g>
</g>
<g>
</g>
<g>
</g>
<g>
</g>
<g>
</g>
<g>
</g>
<g>
</g>
<g>
</g>
<g>
</g>
<g>
</g>
<g>
</g>
<g>
</g>
<g>
</g>
</svg>
