{
	"asset":{
		"version":"2.0",
		"generator":"Created using the official Cinema 4D glTF Exporter 1.000x290161"
	},
	"scenes":[{
		"nodes":[0]
	}],
	"nodes":[{
		"translation":[-17.940492630004884,
		32.78195571899414,
		18.971311569213868],
		"name":"Disc",
		"rotation":[0.5,
		-0.5,
		0.5,
		-0.5],
		"scale":[2.0,
		2.0,
		2.0],
		"mesh":0
	}],
	"meshes":[{
		"primitives":[{
			"attributes":{
				"POSITION":1,
				"TEXCOORD_0":2
			},
			"indices":0,
			"material":0
		}]
	}],
	"accessors":[{
		"bufferView":0,
		"byteOffset":0,
		"type":"SCALAR",
		"componentType":5123,
		"min":[0],
		"count":360,
		"max":[80]
	},
	{
		"bufferView":1,
		"byteOffset":0,
		"type":"VEC3",
		"componentType":5126,
		"min":[-8.363561630249024,
		-3.552713678800501e-15,
		-8.363561630249024],
		"count":81,
		"max":[8.363561630249024,
		0.5507199764251709,
		8.363561630249024]
	},
	{
		"bufferView":1,
		"byteOffset":12,
		"type":"VEC2",
		"componentType":5126,
		"min":[5.551115123125783e-17,
		5.551115123125783e-17],
		"count":81,
		"max":[1.0,
		1.0]
	}],
	"bufferViews":[{
		"buffer":0,
		"byteOffset":0,
		"byteLength":720,
		"target":34963
	},
	{
		"buffer":0,
		"byteOffset":720,
		"byteLength":1620,
		"target":34962,
		"byteStride":20
	}],
	"buffers":[{
		"uri":"data:application/octet-stream;base64,",
		"byteLength":2340
	}],
	"images":[{
		"uri":"data:image/jpeg;base64,"
	}],
	"samplers":[{
		"magFilter":9729,
		"minFilter":9729,
		"wrapS":10497,
		"wrapT":10497
	}],
	"textures":[{
		"sampler":0,
		"source":0
	}],
	"materials":[{
		"pbrMetallicRoughness":{
			"metallicFactor":1.0,
			"baseColorTexture":{
				"index":0
			},
			"baseColorFactor":[1.0,
			1.0,
			1.0,
			1.0],
			"roughnessFactor":1.0
		},
		"emissiveFactor":[0.0,
		0.0,
		0.0],
		"alphaMode":"OPAQUE",
		"doubleSided":true,
		"name":"Mat.2"
	}]
}