{
	"asset":{
		"version":"2.0",
		"generator":"Created using the official Cinema 4D glTF Exporter 1.000x290161"
	},
	"scenes":[{
		"nodes":[0]
	}],
	"nodes":[{
		"name":"Cube.1",
		"translation":[-96.5195541381836,
		15.531298637390137,
		-15.828421592712403],
		"rotation":[-2.832769343193999e-16,
		6.123234262925839e-17,
		1.2246468525851679e-16,
		1.0],
		"scale":[1.0,
		1.0,
		1.0],
		"mesh":0
	}],
	"meshes":[{
		"primitives":[{
			"attributes":{
				"POSITION":1,
				"NORMAL":2,
				"TEXCOORD_0":3
			},
			"indices":0,
			"material":0
		}]
	}],
	"accessors":[{
		"bufferView":0,
		"type":"SCALAR",
		"componentType":5123,
		"count":66453,
		"byteOffset":0,
		"min":[0],
		"max":[23482]
	},
	{
		"bufferView":1,
		"type":"VEC3",
		"componentType":5126,
		"count":23483,
		"byteOffset":0,
		"min":[-83.44442749023438,
		-13.461111068725586,
		-66.21996307373047],
		"max":[181.05726623535157,
		63.146385192871097,
		52.222232818603519]
	},
	{
		"bufferView":1,
		"type":"VEC3",
		"componentType":5126,
		"count":23483,
		"byteOffset":12,
		"min":[-1.0,
		-1.0,
		-1.0],
		"max":[1.0,
		1.0,
		1.0]
	},
	{
		"bufferView":1,
		"type":"VEC2",
		"componentType":5126,
		"count":23483,
		"byteOffset":24,
		"min":[0.005089166574180126,
		0.005089357495307922],
		"max":[0.9949108362197876,
		0.9949105978012085]
	}],
	"bufferViews":[{
		"buffer":0,
		"byteOffset":0,
		"byteLength":132906,
		"target":34963
	},
	{
		"buffer":0,
		"byteOffset":132908,
		"byteLength":751456,
		"target":34962,
		"byteStride":32
	}],
	"buffers":[{
		"uri":"data:application/octet-stream;base64,",
		"byteLength":884364
	}],
	"images":[{
		"uri":"data:image/jpeg;base64,"
	}],
	"samplers":[{
		"magFilter":9729,
		"minFilter":9729,
		"wrapS":10497,
		"wrapT":10497
	}],
	"textures":[{
		"sampler":0,
		"source":0
	}],
	"materials":[{
		"pbrMetallicRoughness":{
			"baseColorTexture":{
				"index":0
			},
			"baseColorFactor":[1.0,
			1.0,
			1.0,
			1.0],
			"metallicFactor":0.0,
			"roughnessFactor":0.5
		},
		"emissiveFactor":[0.0,
		0.0,
		0.0],
		"alphaMode":"OPAQUE",
		"doubleSided":true,
		"name":"Cube"
	}]
}