{
	"asset":{
		"version":"2.0",
		"generator":"Created using the official Cinema 4D glTF Exporter 1.000x290161"
	},
	"scenes":[{
		"nodes":[0,
		1,
		2,
		3,
		4,
		5]
	}],
	"nodes":[{
		"name":"Plane",
		"translation":[-20.574993133544923,
		33.296897888183597,
		29.533967971801759],
		"rotation":[0.7071067690849304,
		0.0,
		0.0,
		-0.7071067690849304],
		"scale":[1.0,
		1.0,
		1.0],
		"mesh":0
	},
	{
		"name":"muros.2",
		"translation":[20.451181411743165,
		2.9471700191497804,
		-32.89040756225586],
		"rotation":[0.0,
		-0.7071067690849304,
		0.0,
		-0.7071067690849304],
		"scale":[1.0,
		1.0,
		1.0],
		"mesh":1
	},
	{
		"name":"muros",
		"translation":[-38.91242980957031,
		3.010788917541504,
		-15.797024726867676],
		"rotation":[0.0,
		0.0,
		0.0,
		-1.0],
		"scale":[1.0,
		1.0,
		1.0],
		"mesh":2
	},
	{
		"name":"muros.1",
		"translation":[-38.91242980957031,
		3.010788917541504,
		-15.797024726867676],
		"rotation":[0.0,
		0.0,
		0.0,
		-1.0],
		"scale":[1.0,
		1.0,
		1.0],
		"mesh":3
	},
	{
		"name":"Cube.1",
		"translation":[-20.31816864013672,
		34.88613510131836,
		29.604557037353517],
		"rotation":[1.2246468525851679e-16,
		1.0,
		-6.123234262925839e-17,
		-1.6081226229577292e-16],
		"scale":[1.0,
		1.0,
		1.0],
		"mesh":4
	},
	{
		"name":"Floor",
		"translation":[-17.11247444152832,
		3.010788917541504,
		-53.50699234008789],
		"rotation":[0.0,
		0.0,
		0.0,
		-1.0],
		"scale":[1.0,
		1.0,
		1.0],
		"mesh":5
	}],
	"meshes":[{
		"primitives":[{
			"attributes":{
				"POSITION":1,
				"TEXCOORD_0":2
			},
			"indices":0,
			"material":0
		}]
	},
	{
		"primitives":[{
			"attributes":{
				"POSITION":4,
				"TEXCOORD_0":5
			},
			"indices":3,
			"material":1
		}]
	},
	{
		"primitives":[{
			"attributes":{
				"POSITION":7,
				"TEXCOORD_0":8
			},
			"indices":6,
			"material":1
		}]
	},
	{
		"primitives":[{
			"attributes":{
				"POSITION":10,
				"TEXCOORD_0":11
			},
			"indices":9,
			"material":1
		}]
	},
	{
		"primitives":[{
			"attributes":{
				"POSITION":13,
				"TEXCOORD_0":14
			},
			"indices":12,
			"material":2
		}]
	},
	{
		"primitives":[{
			"attributes":{
				"POSITION":16,
				"TEXCOORD_0":17
			},
			"indices":15,
			"material":3
		}]
	}],
	"accessors":[{
		"bufferView":0,
		"type":"SCALAR",
		"componentType":5123,
		"count":600,
		"byteOffset":0,
		"min":[0],
		"max":[120]
	},
	{
		"bufferView":1,
		"type":"VEC3",
		"componentType":5126,
		"count":121,
		"byteOffset":0,
		"min":[-21.28499984741211,
		0.0,
		-21.28499984741211],
		"max":[21.28499984741211,
		0.0,
		21.28499984741211]
	},
	{
		"bufferView":1,
		"type":"VEC2",
		"componentType":5126,
		"count":121,
		"byteOffset":12,
		"min":[0.0,
		0.0],
		"max":[1.0,
		1.0]
	},
	{
		"bufferView":2,
		"type":"SCALAR",
		"componentType":5123,
		"count":756,
		"byteOffset":0,
		"min":[0],
		"max":[485]
	},
	{
		"bufferView":3,
		"type":"VEC3",
		"componentType":5126,
		"count":486,
		"byteOffset":0,
		"min":[-48.532108306884769,
		74.94049072265625,
		-88.04615783691406],
		"max":[91.12876892089844,
		75.6668930053711,
		11.894258499145508]
	},
	{
		"bufferView":3,
		"type":"VEC2",
		"componentType":5126,
		"count":486,
		"byteOffset":12,
		"min":[0.00700962170958519,
		0.0623466819524765],
		"max":[0.9913697838783264,
		0.8995229005813599]
	},
	{
		"bufferView":4,
		"type":"SCALAR",
		"componentType":5123,
		"count":756,
		"byteOffset":0,
		"min":[0],
		"max":[485]
	},
	{
		"bufferView":5,
		"type":"VEC3",
		"componentType":5126,
		"count":486,
		"byteOffset":0,
		"min":[-48.532108306884769,
		74.94049072265625,
		-87.5887222290039],
		"max":[91.83531951904297,
		75.6668930053711,
		9.503308296203614]
	},
	{
		"bufferView":5,
		"type":"VEC2",
		"componentType":5126,
		"count":486,
		"byteOffset":12,
		"min":[0.00700962170958519,
		0.0623466819524765],
		"max":[0.9913697838783264,
		0.8995229005813599]
	},
	{
		"bufferView":6,
		"type":"SCALAR",
		"componentType":5123,
		"count":3870,
		"byteOffset":0,
		"min":[0],
		"max":[1586]
	},
	{
		"bufferView":7,
		"type":"VEC3",
		"componentType":5126,
		"count":1587,
		"byteOffset":0,
		"min":[-63.189144134521487,
		-2.066685438156128,
		-122.80116271972656],
		"max":[106.50138092041016,
		75.6668930053711,
		46.22496032714844]
	},
	{
		"bufferView":7,
		"type":"VEC2",
		"componentType":5126,
		"count":1587,
		"byteOffset":12,
		"min":[0.00700962170958519,
		0.006822815164923668],
		"max":[0.9929903745651245,
		0.9931771755218506]
	},
	{
		"bufferView":8,
		"type":"SCALAR",
		"componentType":5123,
		"count":420,
		"byteOffset":0,
		"min":[0],
		"max":[121]
	},
	{
		"bufferView":9,
		"type":"VEC3",
		"componentType":5126,
		"count":122,
		"byteOffset":0,
		"min":[-21.686046600341798,
		-23.54269790649414,
		0.0000010931189535767772],
		"max":[21.965383529663087,
		20.392101287841798,
		1.7947783470153809]
	},
	{
		"bufferView":9,
		"type":"VEC2",
		"componentType":5126,
		"count":122,
		"byteOffset":12,
		"min":[0.008408759720623494,
		0.008705984801054],
		"max":[0.991591215133667,
		0.9912940263748169]
	},
	{
		"bufferView":10,
		"type":"SCALAR",
		"componentType":5123,
		"count":6,
		"byteOffset":0,
		"min":[0],
		"max":[3]
	},
	{
		"bufferView":11,
		"type":"VEC3",
		"componentType":5126,
		"count":4,
		"byteOffset":0,
		"min":[-85.53392028808594,
		0.0,
		-85.50269317626953],
		"max":[85.53392028808594,
		0.0,
		85.50269317626953]
	},
	{
		"bufferView":11,
		"type":"VEC2",
		"componentType":5126,
		"count":4,
		"byteOffset":12,
		"min":[0.009802166372537613,
		0.009805675595998764],
		"max":[0.9901977777481079,
		0.9901943206787109]
	}],
	"bufferViews":[{
		"buffer":0,
		"byteOffset":0,
		"byteLength":1200,
		"target":34963
	},
	{
		"buffer":0,
		"byteOffset":1200,
		"byteLength":2420,
		"target":34962,
		"byteStride":20
	},
	{
		"buffer":1,
		"byteOffset":0,
		"byteLength":1512,
		"target":34963
	},
	{
		"buffer":1,
		"byteOffset":1512,
		"byteLength":9720,
		"target":34962,
		"byteStride":20
	},
	{
		"buffer":2,
		"byteOffset":0,
		"byteLength":1512,
		"target":34963
	},
	{
		"buffer":2,
		"byteOffset":1512,
		"byteLength":9720,
		"target":34962,
		"byteStride":20
	},
	{
		"buffer":3,
		"byteOffset":0,
		"byteLength":7740,
		"target":34963
	},
	{
		"buffer":3,
		"byteOffset":7740,
		"byteLength":31740,
		"target":34962,
		"byteStride":20
	},
	{
		"buffer":4,
		"byteOffset":0,
		"byteLength":840,
		"target":34963
	},
	{
		"buffer":4,
		"byteOffset":840,
		"byteLength":2440,
		"target":34962,
		"byteStride":20
	},
	{
		"buffer":5,
		"byteOffset":0,
		"byteLength":12,
		"target":34963
	},
	{
		"buffer":5,
		"byteOffset":12,
		"byteLength":80,
		"target":34962,
		"byteStride":20
	}],
	"buffers":[{
		"uri":"data:application/octet-stream;base64,",
		"byteLength":3620
	},
	{
		"uri":"data:application/octet-stream;base64,",
		"byteLength":11232
	},
	{
		"uri":"data:application/octet-stream;base64,",
		"byteLength":11232
	},
	{
		"uri":"data:application/octet-stream;base64,",
		"byteLength":39480
	},
	{
		"uri":"data:application/octet-stream;base64,",
		"byteLength":3280
	},
	{
		"uri":"data:application/octet-stream;base64,",
		"byteLength":92
	}],
	"images":[{
		"uri":"data:image/jpeg;base64,"
	},
	{
		"uri":"data:image/jpeg;base64,"
	},
	{
		"uri":"data:image/jpeg;base64,"
	}],
	"samplers":[{
		"magFilter":9729,
		"minFilter":9729,
		"wrapS":10497,
		"wrapT":10497
	},
	{
		"magFilter":9729,
		"minFilter":9729,
		"wrapS":10497,
		"wrapT":10497
	},
	{
		"magFilter":9729,
		"minFilter":9729,
		"wrapS":10497,
		"wrapT":10497
	}],
	"textures":[{
		"sampler":0,
		"source":0
	},
	{
		"sampler":1,
		"source":1
	},
	{
		"sampler":2,
		"source":2
	}],
	"materials":[{
		"pbrMetallicRoughness":{
			"baseColorFactor":[1.0,
			1.0,
			1.0,
			1.0],
			"metallicFactor":1.0,
			"roughnessFactor":1.0
		},
		"emissiveFactor":[0.0,
		0.0,
		0.0],
		"alphaMode":"OPAQUE",
		"doubleSided":true,
		"name":""
	},
	{
		"pbrMetallicRoughness":{
			"baseColorTexture":{
				"index":0
			},
			"baseColorFactor":[1.0,
			1.0,
			1.0,
			1.0],
			"metallicFactor":1.0,
			"roughnessFactor":1.0
		},
		"emissiveFactor":[0.0,
		0.0,
		0.0],
		"alphaMode":"OPAQUE",
		"doubleSided":true,
		"name":"muros"
	},
	{
		"pbrMetallicRoughness":{
			"baseColorTexture":{
				"index":1
			},
			"baseColorFactor":[1.0,
			1.0,
			1.0,
			1.0],
			"metallicFactor":1.0,
			"roughnessFactor":1.0
		},
		"emissiveFactor":[0.0,
		0.0,
		0.0],
		"alphaMode":"OPAQUE",
		"doubleSided":true,
		"name":"Cube"
	},
	{
		"pbrMetallicRoughness":{
			"baseColorTexture":{
				"index":2
			},
			"baseColorFactor":[1.0,
			1.0,
			1.0,
			1.0],
			"metallicFactor":1.0,
			"roughnessFactor":1.0
		},
		"emissiveFactor":[0.0,
		0.0,
		0.0],
		"alphaMode":"OPAQUE",
		"doubleSided":true,
		"name":"Floor"
	}]
}