<?xml version="1.0" encoding="utf-8"?>
<!-- Generator: Adobe Illustrator 21.1.0, SVG Export Plug-In . SVG Version: 6.00 Build 0)  -->
<svg version="1.1" id="Capa_1" xmlns="http://www.w3.org/2000/svg" xmlns:xlink="http://www.w3.org/1999/xlink" x="0px" y="0px"
	 viewBox="0 0 70 70" style="enable-background:new 0 0 70 70;" xml:space="preserve">
<style type="text/css">
	.st0{fill:#97C03D;}
</style>
<g>
	<title>icon-behance</title>
	<path class="st0" d="M25.6,50.5H10.1v-31h15.6c0.6,0.1,1.1,0.1,1.7,0.2c3.9,0.6,6.8,2.9,7,7.4c0.1,2.6-0.6,4.9-3,6.3l-0.8,0.4
		l0.7,0.3c1.6,0.8,2.9,2.2,3.5,3.9c0.4,1.2,0.5,2.4,0.5,3.6c-0.2,4.1-3.1,7.5-7.1,8.3C27.5,50.2,26.6,50.3,25.6,50.5z M17.3,45.1
		c2.6,0,5,0.1,7.5,0s3.8-1.3,4.1-3.6c0.5-1.9-0.7-3.8-2.6-4.3l0,0c-0.7-0.2-1.3-0.3-2-0.3c-2.2,0-4.4,0-6.6,0c-0.2,0-0.3,0-0.4,0
		V45.1z M17.3,31.7c0.1,0,0.2,0,0.3,0c2.1,0,4.2,0,6.2,0c0.8,0,1.6-0.2,2.4-0.4c1.7-0.7,2.5-2.7,1.8-4.4c-0.1-0.3-0.3-0.6-0.5-0.9
		c-0.3-0.4-0.7-0.6-1.2-0.7c-0.9-0.2-1.8-0.4-2.8-0.4c-2-0.1-4,0-6,0c-0.1,0-0.2,0-0.3,0L17.3,31.7z"/>
	<path class="st0" d="M59.9,40.1H46.5h-2.7c-0.2,2.7,1.8,5.2,4.5,5.4c1.1,0.1,2.2,0,3.2-0.4c0.8-0.4,1.4-0.9,1.9-1.7
		c0.1-0.2,0.3-0.4,0.5-0.4c1.9,0,3.7,0,5.8,0c-0.3,0.8-0.6,1.5-0.9,2.2c-1.2,2.1-3.1,3.7-5.5,4.4c-3.2,1.1-6.8,0.8-9.8-0.7
		c-2.8-1.3-4.8-3.8-5.3-6.9c-0.6-2.9-0.4-5.9,0.5-8.7c1.2-3.6,4.5-6.2,8.4-6.5c2.2-0.4,4.4-0.1,6.5,0.7c3.6,1.4,5.4,4.2,6.1,7.9
		c0.1,0.6,0.2,1.1,0.2,1.7L59.9,40.1z M53.8,36.2c0-2.6-2.1-4.7-4.8-4.7c-0.3,0-0.5,0-0.8,0.1c-2.5,0.3-4.7,2.6-4.3,4.7L53.8,36.2
		L53.8,36.2z"/>
	<path class="st0" d="M55,20.8v3H42.6v-3H55z"/>
</g>
</svg>
