<?xml version="1.0" encoding="utf-8"?>
<!-- Generator: Adobe Illustrator 21.1.0, SVG Export Plug-In . SVG Version: 6.00 Build 0)  -->
<svg version="1.1" id="Layer_1" xmlns="http://www.w3.org/2000/svg" xmlns:xlink="http://www.w3.org/1999/xlink" x="0px" y="0px"
	 viewBox="0 0 220 220" style="enable-background:new 0 0 220 220;" xml:space="preserve">
<style type="text/css">
	.Arched_x0020_Green{fill:url(#SVGID_1_);stroke:#FFFFFF;stroke-width:0.25;stroke-miterlimit:1;}
	.st0{fill:#E44E28;}
	.st1{fill:#EC662B;}
	.st2{fill:#EBEBEB;}
	.st3{fill:#FFFFFF;}
</style>
<linearGradient id="SVGID_1_" gradientUnits="userSpaceOnUse" x1="223.1935" y1="632.4445" x2="223.9006" y2="631.7374">
	<stop  offset="0" style="stop-color:#1DA238"/>
	<stop  offset="0.9831" style="stop-color:#24391D"/>
</linearGradient>
<g>
	<polygon class="st0" points="32.2,196.4 14.8,2.1 205.2,2.1 187.8,196.3 109.9,217.9 	"/>
	<polygon class="st1" points="110,201.4 173,184 187.8,18 110,18 	"/>
	<polygon class="st2" points="110,90 78.5,90 76.3,65.6 110,65.6 110,41.8 109.9,41.8 50.3,41.8 50.8,48.2 56.7,113.9 110,113.9 	
		"/>
	<polygon class="st2" points="110,151.9 109.9,151.9 83.4,144.8 81.7,125.8 68.8,125.8 57.8,125.8 61.1,163.2 109.9,176.7 
		110,176.7 	"/>
	<polygon class="st3" points="109.9,90 109.9,113.9 139.3,113.9 136.5,144.8 109.9,151.9 109.9,176.7 158.8,163.2 159.1,159.2 
		164.7,96.4 165.3,90 158.9,90 	"/>
	<polygon class="st3" points="109.9,41.8 109.9,56.6 109.9,65.6 109.9,65.6 167.4,65.6 167.4,65.6 167.5,65.6 168,60.3 169,48.2 
		169.6,41.8 	"/>
</g>
</svg>
