<svg xmlns="http://www.w3.org/2000/svg" viewBox="0 0 31.49 31"><defs><style>.a{fill:#97c03d;}</style></defs><title>icon-linkedin</title><path class="a" d="M11.06,31V10.21h6.36V12.8l.11,0,.43-.49c3-3.63,8.38-3.08,10.8-1.08a7.44,7.44,0,0,1,2.53,4.66c.06.35.13.7.2,1.05V31H24.88c0-3.68,0-7.36,0-11a7.9,7.9,0,0,0-.48-2.54,3,3,0,0,0-2.9-2,3,3,0,0,0-3.19,1.77,6.53,6.53,0,0,0-.58,2.46c-.06,3.78,0,7.56,0,11.34Z"/><path class="a" d="M.49,31c0-.21,0-.42,0-.63q0-9.74,0-19.48c0-.21,0-.42,0-.66H7.11V31Z"/><path class="a" d="M4.54,0A4.63,4.63,0,0,1,6.71,1.28a3.75,3.75,0,0,1,.55,4.14A3.81,3.81,0,0,1,3.49,7.51,3.8,3.8,0,0,1,.2,5L0,4.44V3.06C.15,2.7.27,2.34.45,2A4.06,4.06,0,0,1,3.16,0Z"/></svg>