<?xml version="1.0" encoding="utf-8"?>
<!-- Generator: Adobe Illustrator 21.1.0, SVG Export Plug-In . SVG Version: 6.00 Build 0)  -->
<svg version="1.1" id="Capa_1" xmlns="http://www.w3.org/2000/svg" xmlns:xlink="http://www.w3.org/1999/xlink" x="0px" y="0px"
	 viewBox="0 0 71 71" style="enable-background:new 0 0 71 71;" xml:space="preserve">
<style type="text/css">
	.st0{fill:#97C03D;}
</style>
<title>icon-playstore</title>
<path class="st0" d="M24.3,51H24h-0.1c-0.6-0.1-1-0.5-1.2-1c-0.1-0.2-0.1-0.4-0.2-0.7V21.8v-0.1c0.1-0.7,0.5-1.2,1.1-1.5
	c0.2-0.1,0.3-0.1,0.5-0.1h0.4l0,0c0.4,0.1,0.7,0.2,1,0.4l6,3.6l16,9.7c0.4,0.2,0.6,0.5,0.8,0.8c0.1,0.2,0.2,0.4,0.2,0.6v0.4
	c0,0.2-0.1,0.4-0.2,0.5c-0.2,0.4-0.5,0.8-1,1L25.7,50.4C25.3,50.7,24.8,50.9,24.3,51z M24.8,47.2l11.2-11.7L24.8,23.7V47.2z
	 M41.7,37.9l4-2.4l-4-2.5l-2.3,2.4L41.7,37.9z M37.7,37.2l-7.1,7.4l0,0l9-5.5L37.7,37.2z M39.6,31.7l-9-5.5l0,0l7.1,7.4L39.6,31.7z"
	/>
</svg>
