<?xml version="1.0" encoding="utf-8"?>
<!-- Generator: Adobe Illustrator 21.1.0, SVG Export Plug-In . SVG Version: 6.00 Build 0)  -->
<svg version="1.1" id="Layer_1" xmlns="http://www.w3.org/2000/svg" xmlns:xlink="http://www.w3.org/1999/xlink" x="0px" y="0px"
	 viewBox="0 0 220 220" style="enable-background:new 0 0 220 220;" xml:space="preserve">
<style type="text/css">
	.st0{fill:#9A4993;}
	.st1{fill:#6A1577;}
	.st2{fill:#813084;}
	.st3{fill:#FFFFFF;}
</style>
<g>
	<path id="XMLID_3_" class="st0" d="M206,65.5c0-3.6-0.8-6.8-2.3-9.6c-1.5-2.7-3.9-5-6.9-6.8C171.1,34.5,145.6,19.8,120,5
		c-6.9-4-13.6-3.8-20.4,0.2c-10.2,6-61.1,35.2-76.3,44C17,52.8,14,58.3,14,65.5c0,29.6,0,59.3,0,88.9c0,3.5,0.7,6.7,2.2,9.4
		c1.5,2.8,3.9,5.1,7.1,7c15.2,8.8,66.1,38,76.3,44c6.8,4,13.5,4.2,20.4,0.2c25.6-14.8,51.1-29.4,76.7-44.2c3.2-1.8,5.5-4.2,7.1-7
		c1.5-2.7,2.2-5.9,2.2-9.4C206,154.5,206,95.2,206,65.5"/>
	<path id="XMLID_4_" class="st1" d="M110.3,109.7l-94.1,54.2c1.5,2.8,3.9,5.1,7.1,7c15.2,8.8,66.1,38,76.3,44
		c6.8,4,13.5,4.2,20.4,0.2c25.6-14.8,51.1-29.4,76.7-44.2c3.2-1.8,5.5-4.2,7.1-7L110.3,109.7"/>
	<path id="XMLID_5_" class="st1" d="M82.4,125.8c5.5,9.6,15.8,16,27.6,16c11.9,0,22.2-6.5,27.7-16.2l-27.4-15.9L82.4,125.8"/>
	<path id="XMLID_6_" class="st2" d="M206,65.5c0-3.6-0.8-6.8-2.3-9.6l-93.4,53.8l93.5,54.1c1.5-2.7,2.2-5.9,2.2-9.4
		C206,154.5,206,95.2,206,65.5"/>
	<path id="XMLID_9_" class="st3" d="M137.7,125.6c-5.4,9.7-15.8,16.2-27.7,16.2c-11.8,0-22.1-6.4-27.6-16c-2.7-4.6-4.2-10-4.2-15.8
		c0-17.5,14.2-31.8,31.8-31.8c11.7,0,22,6.4,27.5,15.8l27.8-16c-11-19-31.6-31.9-55.2-31.9c-35.2,0-63.8,28.5-63.8,63.8
		c0,11.6,3.1,22.4,8.4,31.7c11,19.1,31.7,32,55.3,32c23.7,0,44.4-12.9,55.4-32.1L137.7,125.6"/>
	<g id="XMLID_32_">
		<rect id="XMLID_1_" x="166.4" y="94.9" class="st3" width="6.3" height="30.5"/>
		<rect id="XMLID_30_" x="180.4" y="94.9" class="st3" width="6.3" height="30.5"/>
		
			<rect id="XMLID_31_" x="173.4" y="87.9" transform="matrix(-1.836970e-16 1 -1 -1.836970e-16 279.7779 -73.3765)" class="st3" width="6.3" height="30.5"/>
		
			<rect id="XMLID_23_" x="173.4" y="101.9" transform="matrix(-1.836970e-16 1 -1 -1.836970e-16 293.7703 -59.3841)" class="st3" width="6.3" height="30.5"/>
	</g>
</g>
</svg>
