<?xml version="1.0" encoding="utf-8"?>
<!-- Generator: Adobe Illustrator 21.1.0, SVG Export Plug-In . SVG Version: 6.00 Build 0)  -->
<svg version="1.1" id="Capa_1" xmlns="http://www.w3.org/2000/svg" xmlns:xlink="http://www.w3.org/1999/xlink" x="0px" y="0px"
	 viewBox="0 0 311 311" style="enable-background:new 0 0 311 311;" xml:space="preserve">
<style type="text/css">
	.st0{fill:#FFFFFF;}
	.st1{fill:#97C03D;}
</style>
<g>
	<g>
		<path class="st0" d="M70.2,104.6v110.1c0,15.6-6.9,21.6-17.9,21.6c-10.9,0-17.9-6-17.9-21.6v-12.1H0.1v9.9
			c0,35.1,18.4,55.1,52.3,55.1c33.8,0,52.3-20.1,52.3-55.1V104.6H70.2z"/>
		<path class="st0" d="M129.2,186.2h-12.7v-80.7h12.7v34.6h14.4v-34.6h12.9v80.7h-12.9v-34.6h-14.4V186.2z"/>
		<path class="st0" d="M164.8,124.9c0-12.9,6.8-20.3,19.3-20.3s19.3,7.4,19.3,20.3v41.9c0,12.9-6.8,20.3-19.3,20.3
			s-19.3-7.4-19.3-20.3V124.9z M177.4,167.7c0,5.8,2.5,7.9,6.6,7.9s6.6-2.2,6.6-7.9v-43.5c0-5.8-2.5-7.9-6.6-7.9s-6.6,2.2-6.6,7.9
			V167.7z"/>
		<path class="st0" d="M223,127.8h-0.2v58.4h-11.4v-80.7h15.9l12.8,48.3h0.2v-48.3h11.3v80.7h-13L223,127.8z"/>
	</g>
	<g>
		<g>
			<path class="st1" d="M34.4,202.6l0.1-106.2c0-15.6,6.9-21.6,17.9-21.6c10.9,0,17.9,6,17.9,21.6v8.3h34.4v-6.1
				c0-35.1-18.4-55.1-52.3-55.1C18.4,43.4,0,63.5,0,98.5v104.1H34.4z"/>
		</g>
	</g>
	<g>
		<path class="st1" d="M133.5,181.7c12.3,0,18.7,7.4,18.7,20.3v2.5h-12v-3.3c0-5.8-2.3-7.9-6.3-7.9c-4.1,0-6.3,2.2-6.3,7.9
			c0,5.9,2.5,10.2,10.9,17.5c10.6,9.3,14,16.1,14,25.2c0,12.9-6.5,20.3-18.9,20.3c-12.5,0-18.9-7.4-18.9-20.3v-5h12v5.8
			c0,5.8,2.5,7.9,6.6,7.9s6.6-2.1,6.6-7.9c0-5.9-2.5-10.2-10.9-17.5c-10.6-9.3-14-16.1-14-25.2C114.8,189.1,121.2,181.7,133.5,181.7
			z"/>
		<path class="st1" d="M158.5,202c0-12.9,6.8-20.3,19.3-20.3S197,189.1,197,202V244c0,12.9-6.8,20.3-19.3,20.3s-19.3-7.4-19.3-20.3
			V202z M171.2,244.8c0,5.8,2.5,7.9,6.6,7.9s6.6-2.2,6.6-7.9v-43.6c0-5.8-2.5-7.9-6.6-7.9s-6.6,2.2-6.6,7.9V244.8z"/>
		<path class="st1" d="M231.7,263.3c-0.7-2.1-1.1-3.4-1.1-9.9v-12.7c0-7.5-2.5-10.2-8.3-10.2h-4.3v32.9h-12.7v-80.7h19.1
			c13.1,0,18.8,6.1,18.8,18.6v6.3c0,8.3-2.7,13.6-8.3,16.3v0.2c6.3,2.7,8.4,8.6,8.4,17v12.5c0,3.9,0.1,6.8,1.4,9.8L231.7,263.3
			L231.7,263.3z M217.9,194.2v24.8h5c4.7,0,7.6-2.1,7.6-8.6v-7.9c0-5.8-2-8.3-6.5-8.3H217.9z"/>
		<path class="st1" d="M251.5,182.7h12.7v80.7h-12.7V182.7z"/>
		<path class="st1" d="M272.4,202c0-12.9,6.8-20.3,19.3-20.3c12.5,0,19.3,7.4,19.3,20.3V244c0,12.9-6.8,20.3-19.3,20.3
			c-12.5,0-19.3-7.4-19.3-20.3V202z M285.1,244.8c0,5.8,2.5,7.9,6.6,7.9c4.1,0,6.6-2.2,6.6-7.9v-43.6c0-5.8-2.5-7.9-6.6-7.9
			c-4.1,0-6.6,2.2-6.6,7.9V244.8z"/>
	</g>
</g>
</svg>
