<?xml version="1.0" encoding="utf-8"?>
<!-- Generator: Adobe Illustrator 21.1.0, SVG Export Plug-In . SVG Version: 6.00 Build 0)  -->
<svg version="1.1" id="Capa_1" xmlns="http://www.w3.org/2000/svg" xmlns:xlink="http://www.w3.org/1999/xlink" x="0px" y="0px"
	 viewBox="0 0 311 311" style="enable-background:new 0 0 311 311;" xml:space="preserve">
<style type="text/css">
	.st0{fill:#FFFFFF;}
	.st1{fill:#97C03D;}
</style>
<g>
	<g>
		<path class="st0" d="M180.1,84.9v151.8c0,21.6-9.5,29.8-24.7,29.8c-15.1,0-24.7-8.2-24.7-29.8V220H83.4v13.6
			c0,48.3,25.4,76,72.1,76c46.6,0,72.1-27.6,72.1-76V84.9H180.1z"/>
	</g>
	<g>
		<g>
			<path class="st1" d="M130.7,220l0.1-146.5c0-21.6,9.5-29.8,24.7-29.8c15.1,0,24.7,8.2,24.7,29.8v11.4h47.5v-8.4
				c0-48.3-25.4-76-72.1-76c-46.7,0-72.1,27.6-72.1,76V220H130.7z"/>
		</g>
	</g>
</g>
</svg>
