<svg xmlns="http://www.w3.org/2000/svg" viewBox="0 0 26.23 31"><defs><style>.a{fill:#97c03d;}</style></defs><title>icon-playstore</title><path class="a" d="M1.86,31H1.55l-.11,0A1.59,1.59,0,0,1,.19,30,4.8,4.8,0,0,1,0,29.33V1.76l0-.12A1.84,1.84,0,0,1,1.13.15,4,4,0,0,1,1.65,0h.41l0,0a2.55,2.55,0,0,1,1,.4l6,3.64,16.05,9.74a2,2,0,0,1,.83.83,5.3,5.3,0,0,1,.21.61v.36a4.74,4.74,0,0,1-.16.54,2.19,2.19,0,0,1-.95,1L3.24,30.4A3.42,3.42,0,0,1,1.86,31Zm.53-3.83L13.63,15.43,2.39,3.71Zm16.89-9.29,4-2.44-4-2.45-2.34,2.44Zm-4-.72L8.14,24.61v0l9-5.48Zm1.9-5.43-9-5.47v0l7.13,7.44Z"/></svg>