<?xml version="1.0" encoding="utf-8"?>
<!-- Generator: Adobe Illustrator 21.1.0, SVG Export Plug-In . SVG Version: 6.00 Build 0)  -->
<svg version="1.1" id="Capa_1" xmlns="http://www.w3.org/2000/svg" xmlns:xlink="http://www.w3.org/1999/xlink" x="0px" y="0px"
	 viewBox="0 0 70 70" style="enable-background:new 0 0 70 70;" xml:space="preserve">
<style type="text/css">
	.st0{fill:#97C03D;}
</style>
<title>icon-linkedin</title>
<g>
	<path class="st0" d="M30.3,50.5V29.7h6.4v2.6h0.1l0.4-0.5c3-3.6,8.4-3.1,10.8-1.1c1.4,1.2,2.3,2.8,2.5,4.7c0.1,0.3,0.1,0.7,0.2,1
		v14h-6.6c0-3.7,0-7.4,0-11c0-0.9-0.2-1.7-0.5-2.5c-0.4-1.2-1.6-2-2.9-2c-1.3-0.2-2.6,0.5-3.2,1.8c-0.4,0.8-0.5,1.6-0.6,2.5
		c-0.1,3.8,0,7.6,0,11.3L30.3,50.5z"/>
	<path class="st0" d="M19.8,50.5c0-0.2,0-0.4,0-0.6c0-6.5,0-13,0-19.5c0-0.2,0-0.4,0-0.7h6.6v20.7H19.8z"/>
	<path class="st0" d="M23.8,19.5c0.8,0.2,1.6,0.7,2.2,1.3c1,1.1,1.2,2.8,0.5,4.1c-0.7,1.4-2.2,2.2-3.8,2.1c-1.5-0.1-2.8-1.1-3.3-2.5
		l-0.2-0.6v-1.4c0.1-0.4,0.3-0.7,0.4-1.1c0.6-1,1.6-1.8,2.7-2H23.8z"/>
</g>
</svg>
