<svg xmlns="http://www.w3.org/2000/svg" viewBox="0 0 31.72 31"><defs><style>.a{fill:#97c03d;}</style></defs><title>icon-github</title><path class="a" d="M15.32,0H16.4c.55.05,1.1.08,1.65.16A15.57,15.57,0,0,1,26.8,4.39,15.44,15.44,0,0,1,31.45,13c.11.62.18,1.26.27,1.89v2c0,.36-.09.71-.14,1.07a15.79,15.79,0,0,1-6,10.47A15.28,15.28,0,0,1,20.74,31h-.29a.92.92,0,0,1-.65-1c0-1.35,0-2.7,0-4a4,4,0,0,0-1-3c.67-.13,1.31-.22,1.93-.38a6.65,6.65,0,0,0,3.87-2.35,7.45,7.45,0,0,0,1.33-3.76A6.71,6.71,0,0,0,24.5,11a.49.49,0,0,1-.06-.41,5.51,5.51,0,0,0-.19-3.78A.37.37,0,0,0,24,6.57a4.1,4.1,0,0,0-1.23.19C21.85,7.15,21,7.6,20.12,8a.88.88,0,0,1-.64.1c-.61-.13-1.22-.27-1.84-.34a15.25,15.25,0,0,0-5.48.34.82.82,0,0,1-.49-.1C10.78,7.63,9.91,7.16,9,6.78a4.57,4.57,0,0,0-1.27-.21.33.33,0,0,0-.27.17,5.43,5.43,0,0,0-.21,3.74.61.61,0,0,1-.11.61A11.53,11.53,0,0,0,6.08,13a7.49,7.49,0,0,0-.21,3.92,6.68,6.68,0,0,0,1.56,3.62,7,7,0,0,0,3.88,2.08l1.56.29a7.85,7.85,0,0,0-.58.93,9.62,9.62,0,0,0-.32,1,.35.35,0,0,1-.16.21c-1.18.42-2.38.66-3.46-.21a6.55,6.55,0,0,1-1.1-1.31A3.22,3.22,0,0,0,5,22.09a2.64,2.64,0,0,0-.81.15,3.68,3.68,0,0,0,.43.65,7.48,7.48,0,0,1,.92.79,14.48,14.48,0,0,1,1.06,1.83,2.89,2.89,0,0,0,1,1.18,5.57,5.57,0,0,0,3.62.64c.22,0,.44-.07.7-.11,0,.94,0,1.85,0,2.75a.9.9,0,0,1-.66,1H11l-.37-.13A15.67,15.67,0,0,1,.38,19.36C.18,18.59.12,17.78,0,17V14.74a1.36,1.36,0,0,0,.06-.24A15.34,15.34,0,0,1,3.8,5.57,15.35,15.35,0,0,1,13,.29C13.76.15,14.54.09,15.32,0Z"/></svg>