<?xml version="1.0" encoding="utf-8"?>
<!-- Generator: Adobe Illustrator 21.1.0, SVG Export Plug-In . SVG Version: 6.00 Build 0)  -->
<svg version="1.1" id="Capa_1" xmlns="http://www.w3.org/2000/svg" xmlns:xlink="http://www.w3.org/1999/xlink" x="0px" y="0px"
	 viewBox="0 0 126.6 135.4" style="enable-background:new 0 0 126.6 135.4;" xml:space="preserve">
<style type="text/css">
	.st0{fill:#050507;}
	.st1{fill:#333A53;}
	.st2{fill:#FFFFFF;}
	.st3{fill:#97C03D;}
	.st4{enable-background:new    ;}
	.st5{fill:none;}
	.st6{fill:#97C03D;stroke:#97C03D;stroke-width:2;stroke-miterlimit:10;}
	.st7{fill:none;stroke:#FFFFFF;stroke-width:2;stroke-miterlimit:10;}
	.st8{fill:none;stroke:#FFFFFF;stroke-width:5;stroke-miterlimit:10;}
	.st9{fill:none;stroke:#97C03D;stroke-width:2;stroke-miterlimit:10;}
	.st10{opacity:0.5;fill:#FFFFFF;}
	.st11{fill:#424242;}
</style>
<g id="QNBaNO.tif">
	<g>
		<path class="st11" d="M55,135.4c-7.4,0.2-14.6-1-21.6-3.3c-20.1-6.8-29.9-21.9-32.5-42.1c-2.6-20.1,0.2-39.5,8.6-58
			c2.4-5.3,5.7-10.1,9.5-14.6c6.9-8.1,16.4-9.5,26.1-10.7c4.5-0.5,9-0.7,13.4-1.2c2.6-0.3,5.5,0.9,7.2-3.1c0.9-2.1,4.9-3.1,7.7-1.5
			c8.6,5,18.1,8.2,26.2,14.4c22.1,17.1,30.5,39.4,25.8,66.5c-4.7,27.1-22.6,42.4-47.7,50.4C70.3,134.4,62.7,135.6,55,135.4z
			 M8.2,74.5c0.2,2.9,0.2,6.7,0.7,10.5c2.1,18.3,9.5,32.3,28.7,37.7c11.8,3.4,23.7,4.6,35.7,2.3c20.5-4,33-17.6,39.7-36.4
			c8-22.5,6.8-43.9-11.7-61.5c-3.8-3.6-8.7-8-13.4-7.2c-5.6,0.9-9.2-1.1-13.4-3.3c-14.9-7.6-39.8-3.3-51.3,9c-1.4,1.5-2.8,3.1-4,4.9
			C11.1,43.8,8.6,58.4,8.2,74.5z"/>
		<path class="st11" d="M64.6,101.4c-14.2-0.4-25.5-4-34-14.2c-2.9-3.4-4-7.6-4.5-11.9c-0.1-1-0.5-2.3,0.7-2.6
			c1.1-0.3,2.1,0.7,2.5,1.9c1.8,5.1,5.3,8.7,9.8,11.4c15.8,9.4,39.6,10.3,53.2-7.1c0.7-0.9,1-3.1,2.7-2.3c1.7,0.8,0.6,2.7,0.3,4
			c-3,11.7-11.5,17.3-22.6,19.8C69.6,101,66.4,101.2,64.6,101.4z"/>
		<path class="st11" d="M77.5,56.9c-0.2-4.6,2-6.7,5.3-6.5c2.9,0.1,5.9,1.8,5.6,5.3c-0.3,3.2-1.7,6.6-5.7,6.7
			C78.5,62.5,77.9,59.2,77.5,56.9z"/>
		<path class="st11" d="M46.2,56.1c-1.1,1.9-0.6,5.4-4.6,5.3c-4-0.1-6.1-2.1-6.2-6.1c-0.1-3.5,2-5.9,5-5.8
			C43.6,49.7,45.9,52.2,46.2,56.1z"/>
	</g>
</g>
</svg>
