<svg xmlns="http://www.w3.org/2000/svg" viewBox="0 0 49.74 31"><defs><style>.a{fill:#97c03d;}</style></defs><title>icon-behance</title><path class="a" d="M15.5,31H0V0H15.62c.57.08,1.14.14,1.71.23,3.87.59,6.82,2.94,7,7.35.12,2.62-.6,4.87-3,6.34l-.75.44.74.34a6.63,6.63,0,0,1,3.5,3.88,9.81,9.81,0,0,1,.46,3.64,8.86,8.86,0,0,1-7.06,8.33C17.36,30.74,16.43,30.85,15.5,31ZM7.18,25.56c2.56,0,5,.08,7.53,0s3.78-1.3,4.11-3.62a3.54,3.54,0,0,0-2.61-4.28,8.3,8.3,0,0,0-2-.27c-2.2,0-4.39,0-6.59,0-.15,0-.29,0-.43,0Zm0-13.35a2.75,2.75,0,0,0,.31,0c2.08,0,4.16,0,6.24,0a8.64,8.64,0,0,0,2.43-.41A3.36,3.36,0,0,0,17.5,6.57a2.51,2.51,0,0,0-1.2-.73,14.16,14.16,0,0,0-2.79-.39c-2-.06-4,0-6,0a2.09,2.09,0,0,0-.32.05Z"/><path class="a" d="M49.74,20.59l-13.36,0h-2.7A5,5,0,0,0,38.2,26a6.17,6.17,0,0,0,3.23-.43,4.35,4.35,0,0,0,1.87-1.67c.1-.16.3-.36.45-.36,1.87,0,3.73,0,5.8,0a17.05,17.05,0,0,1-.92,2.2,9.42,9.42,0,0,1-5.46,4.38,13,13,0,0,1-9.83-.66,9.07,9.07,0,0,1-5.26-6.87,16.32,16.32,0,0,1,.5-8.67A9.7,9.7,0,0,1,36.94,7.4a12.38,12.38,0,0,1,6.48.68C47,9.53,48.82,12.32,49.5,16c.1.56.16,1.14.23,1.7Zm-6.05-3.86a4.75,4.75,0,0,0-5.52-4.67c-2.49.26-4.65,2.59-4.31,4.67Z"/><path class="a" d="M44.88,1.32v3H32.5v-3Z"/></svg>