<?xml version="1.0" encoding="utf-8"?>
<!-- Generator: Adobe Illustrator 21.1.0, SVG Export Plug-In . SVG Version: 6.00 Build 0)  -->
<svg version="1.1" id="Capa_1" xmlns="http://www.w3.org/2000/svg" xmlns:xlink="http://www.w3.org/1999/xlink" x="0px" y="0px"
	 viewBox="0 0 656.5 575.3" style="enable-background:new 0 0 656.5 575.3;" xml:space="preserve">
<style type="text/css">
	.st0{fill:#97C03D;}
	.st1{fill:#FFFFFF;}
</style>
<rect x="0.1" width="656.2" height="575.3"/>
<g>
	<g>
		<path class="st0" d="M287,308.7c17.6,0,26.6,10.5,26.6,28.9v3.6h-17.1v-4.7c0-8.2-3.3-11.3-9-11.3c-5.8,0-9,3.1-9,11.3
			c0,8.4,3.6,14.6,15.5,25c15.1,13.3,19.9,22.9,19.9,36c0,18.4-9.2,28.9-27,28.9c-17.8,0-27-10.5-27-28.9v-7.1H277v8.2
			c0,8.2,3.6,11.2,9.4,11.2s9.4-3,9.4-11.2c0-8.4-3.6-14.6-15.5-25c-15.1-13.3-19.9-22.9-19.9-36C260.3,319.3,269.4,308.7,287,308.7
			z"/>
		<path class="st0" d="M322.6,337.7c0-18.4,9.7-28.9,27.5-28.9s27.5,10.5,27.5,28.9v59.8c0,18.4-9.7,28.9-27.5,28.9
			s-27.5-10.5-27.5-28.9V337.7z M340.7,398.7c0,8.2,3.6,11.3,9.4,11.3s9.4-3.1,9.4-11.3v-62.2c0-8.2-3.6-11.3-9.4-11.3
			s-9.4,3.1-9.4,11.3V398.7z"/>
		<path class="st0" d="M427,425.1c-1-3-1.6-4.8-1.6-14.1v-18.1c0-10.7-3.6-14.6-11.8-14.6h-6.2v46.9h-18.1V310.1h27.3
			c18.7,0,26.8,8.7,26.8,26.5v9c0,11.8-3.8,19.4-11.8,23.2v0.3c9,3.8,12,12.3,12,24.3v17.8c0,5.6,0.2,9.7,2,14L427,425.1L427,425.1z
			 M407.3,326.5v35.3h7.1c6.7,0,10.8-3,10.8-12.2v-11.3c0-8.2-2.8-11.8-9.2-11.8H407.3z"/>
		<path class="st0" d="M455.3,310.1h18.1v115.1h-18.1V310.1z"/>
		<path class="st0" d="M485.1,337.7c0-18.4,9.7-28.9,27.5-28.9s27.5,10.5,27.5,28.9v59.8c0,18.4-9.7,28.9-27.5,28.9
			s-27.5-10.5-27.5-28.9V337.7z M503.1,398.7c0,8.2,3.6,11.3,9.4,11.3c5.8,0,9.4-3.1,9.4-11.3v-62.2c0-8.2-3.6-11.3-9.4-11.3
			c-5.8,0-9.4,3.1-9.4,11.3V398.7z"/>
	</g>
	<g>
		<path class="st1" d="M196.7,198.8v157c0,22.3-9.8,30.8-25.5,30.8c-15.6,0-25.5-8.5-25.5-30.8v-17.3h-49v14.1
			c0,50,26.3,78.6,74.6,78.6c48.2,0,74.6-28.6,74.6-78.6V198.8H196.7z"/>
		<path class="st1" d="M280.9,315.2h-18.1V200.1h18.1v49.3h20.5v-49.3h18.4v115.1h-18.4v-49.3h-20.5V315.2z"/>
		<path class="st1" d="M331.6,227.7c0-18.4,9.7-28.9,27.5-28.9s27.5,10.5,27.5,28.9v59.8c0,18.4-9.7,28.9-27.5,28.9
			s-27.5-10.5-27.5-28.9V227.7z M349.6,288.7c0,8.2,3.6,11.3,9.4,11.3s9.4-3.1,9.4-11.3v-62.1c0-8.2-3.6-11.3-9.4-11.3
			s-9.4,3.1-9.4,11.3V288.7z"/>
		<path class="st1" d="M414.6,231.9h-0.3v83.3H398V200.1h22.7l18.2,68.9h0.3v-68.9h16.1v115.1h-18.6L414.6,231.9z"/>
	</g>
	<g>
		<g>
			<path class="st0" d="M145.6,338.5l0.1-151.5c0-22.3,9.8-30.8,25.5-30.8c15.6,0,25.5,8.5,25.5,30.8v11.8h49.1v-8.7
				c0-50-26.3-78.6-74.6-78.6c-48.3,0-74.6,28.6-74.6,78.6v148.4H145.6z"/>
		</g>
	</g>
	<g>
		<path class="st1" d="M367.8,445.7l-7.1,18H359l7.1-18H367.8z"/>
		<path class="st1" d="M378.8,445.7l-7.1,18H370l7.1-18H378.8z"/>
		<path class="st1" d="M390.2,446.1c2.6,0,4.7,0.7,6.1,2s2.1,3.4,2.1,6.2c0,1.4-0.2,2.7-0.5,3.8c-0.3,1.1-0.8,2.1-1.5,2.8
			c-0.7,0.8-1.5,1.3-2.6,1.7s-2.3,0.6-3.7,0.6h-5.9v-17.1H390.2z M390.4,461.4c0.3,0,0.6,0,1-0.1c0.4,0,0.8-0.1,1.2-0.3
			c0.4-0.2,0.9-0.4,1.3-0.7c0.4-0.3,0.8-0.7,1.1-1.2c0.3-0.5,0.6-1.1,0.8-1.9c0.2-0.7,0.3-1.7,0.3-2.7s-0.1-1.9-0.3-2.8
			c-0.2-0.8-0.5-1.5-1-2.1s-1-1-1.8-1.3c-0.7-0.3-1.6-0.4-2.7-0.4h-3.7v13.3h3.8V461.4z"/>
		<path class="st1" d="M418,446.1v1.9h-9.6v5.5h8.9v1.9h-8.9v6h9.7v1.9h-11.9v-17.2H418z"/>
		<path class="st1" d="M429.8,463.3l-6-17.2h2.5l4.9,14.9l0,0l5-14.9h2.4l-6.1,17.2H429.8z"/>
		<path class="st1" d="M457,446.1v1.9h-9.6v5.5h8.9v1.9h-8.9v6h9.7v1.9h-11.9v-17.2H457z"/>
		<path class="st1" d="M467,446.1v15.3h9.1v1.9h-11.4v-17.2H467z"/>
		<path class="st1" d="M482.5,451.3c0.3-1.1,0.9-2,1.6-2.9c0.7-0.8,1.5-1.5,2.6-2c1-0.5,2.2-0.7,3.6-0.7s2.6,0.2,3.6,0.7
			s1.9,1.2,2.6,2s1.2,1.8,1.6,2.9c0.3,1.1,0.5,2.2,0.5,3.4c0,1.2-0.2,2.3-0.5,3.4s-0.9,2-1.6,2.9c-0.7,0.8-1.5,1.5-2.6,2
			c-1,0.5-2.2,0.7-3.6,0.7s-2.6-0.2-3.6-0.7s-1.9-1.2-2.6-2s-1.2-1.8-1.6-2.9c-0.3-1.1-0.5-2.2-0.5-3.4
			C482,453.5,482.1,452.4,482.5,451.3z M484.6,457.3c0.2,0.8,0.6,1.6,1.1,2.3c0.5,0.7,1.1,1.2,1.9,1.6s1.7,0.6,2.7,0.6
			s1.9-0.2,2.7-0.6c0.8-0.4,1.4-1,1.9-1.6c0.5-0.7,0.8-1.4,1.1-2.3c0.2-0.8,0.3-1.7,0.3-2.6s-0.1-1.7-0.3-2.6
			c-0.2-0.8-0.6-1.6-1.1-2.3c-0.5-0.7-1.1-1.2-1.9-1.6s-1.7-0.6-2.7-0.6s-1.9,0.2-2.7,0.6c-0.8,0.4-1.4,1-1.9,1.6
			c-0.5,0.7-0.8,1.4-1.1,2.3c-0.2,0.8-0.3,1.7-0.3,2.6C484.2,455.6,484.4,456.4,484.6,457.3z"/>
		<path class="st1" d="M513.6,446.1c1.7,0,3,0.4,3.9,1.3c0.9,0.9,1.3,2.1,1.3,3.7s-0.4,2.9-1.3,3.8c-0.9,0.9-2.2,1.3-3.9,1.3h-5.3v7
			H506v-17.1H513.6z M512.8,454.4c1.3,0,2.3-0.2,2.9-0.8c0.6-0.5,0.9-1.3,0.9-2.4c0-1-0.3-1.8-0.9-2.3c-0.6-0.5-1.6-0.8-2.9-0.8
			h-4.5v6.3L512.8,454.4L512.8,454.4z"/>
		<path class="st1" d="M538.3,446.1v1.9h-9.6v5.5h8.9v1.9h-8.9v6h9.7v1.9h-11.9v-17.2H538.3z"/>
		<path class="st1" d="M554.1,446.1c1.6,0,2.9,0.4,3.8,1.2c0.9,0.8,1.4,1.9,1.4,3.3c0,1-0.2,2-0.7,2.7c-0.5,0.8-1.2,1.3-2.3,1.6l0,0
			c0.5,0.1,0.9,0.3,1.2,0.5c0.3,0.2,0.6,0.5,0.7,0.8c0.2,0.3,0.3,0.7,0.4,1c0.1,0.4,0.2,0.8,0.2,1.2c0,0.4,0.1,0.8,0.1,1.3
			c0,0.4,0.1,0.9,0.1,1.3c0.1,0.4,0.2,0.8,0.3,1.2c0.1,0.4,0.3,0.7,0.5,1h-2.6c-0.2-0.2-0.3-0.4-0.3-0.7c-0.1-0.3-0.1-0.6-0.1-1
			s0-0.8,0-1.2c0-0.4-0.1-0.9-0.1-1.3c-0.1-0.4-0.1-0.8-0.2-1.2c-0.1-0.4-0.2-0.7-0.5-1c-0.2-0.3-0.5-0.5-0.8-0.7s-0.8-0.3-1.3-0.3
			h-5.6v7.3H546v-17L554.1,446.1L554.1,446.1z M554.6,453.9c0.5-0.1,0.9-0.2,1.3-0.5c0.4-0.2,0.7-0.5,0.9-0.9s0.3-0.9,0.3-1.5
			c0-0.9-0.2-1.6-0.7-2.1s-1.3-0.8-2.3-0.8h-5.7v6h4.8C553.6,454,554.1,454,554.6,453.9z"/>
	</g>
</g>
</svg>
