<?xml version="1.0" encoding="utf-8"?>
<!-- Generator: Adobe Illustrator 21.1.0, SVG Export Plug-In . SVG Version: 6.00 Build 0)  -->
<svg version="1.1" id="Capa_1" xmlns="http://www.w3.org/2000/svg" xmlns:xlink="http://www.w3.org/1999/xlink" x="0px" y="0px"
	 viewBox="0 0 463.3 351.6" style="enable-background:new 0 0 463.3 351.6;" xml:space="preserve">
<style type="text/css">
	.st0{fill:#050507;}
	.st1{fill:#333A53;}
	.st2{fill:#FFFFFF;}
	.st3{fill:#97C03D;}
	.st4{fill:#97C03D;stroke:#97C03D;stroke-width:2;stroke-miterlimit:10;}
	.st5{fill:none;stroke:#FFFFFF;stroke-width:2;stroke-miterlimit:10;}
	.st6{fill:none;stroke:#FFFFFF;stroke-width:5;stroke-miterlimit:10;}
	.st7{fill:none;stroke:#97C03D;stroke-width:2;stroke-miterlimit:10;}
</style>
<rect x="750.4" y="-1172.4" class="st0" width="1366" height="768"/>
<g id="i3KnSU.tif">
	
		<image style="overflow:visible;" width="564" height="928" id="Layer_0_5_" xlink:href="4DBA1ECDE9565A9.png"  transform="matrix(1 0 0 1 -125.5542 -1580.4028)">
	</image>
</g>
<rect x="607.4" y="-1548.4" class="st1" width="298" height="262"/>
<rect x="1004.4" y="-1548.4" class="st0" width="298" height="262"/>
<g id="SvBtvv.tif">
	
		<image style="overflow:visible;" width="564" height="2620" id="Layer_0_4_" xlink:href="4DBA1ECDE9565AB.png"  transform="matrix(1 0 0 1 2322.4458 -2184.4028)">
	</image>
</g>
<path class="st2" d="M271-327.7v-151.5c0-22.3,9.8-30.8,25.5-30.8c15.6,0,25.5,8.5,25.5,30.8v11.8H371v-8.7
	c0-50-26.3-78.6-74.6-78.6c-48.2,0-74.6,28.6-74.6,78.6v148.4H271z"/>
<path class="st3" d="M321.9-467.4v157c0,22.3-9.8,30.8-25.5,30.8c-15.6,0-25.5-8.5-25.5-30.8v-17.2h-49.1v14.1
	c0,50,26.3,78.6,74.6,78.6c48.2,0,74.6-28.6,74.6-78.6v-153.8H321.9z"/>
<g>
	<g>
		<g>
			<path class="st3" d="M955.6-916.1c0-50,26.3-78.6,74.6-78.6c48.2,0,74.6,28.6,74.6,78.6v162.5c0,50-26.3,78.6-74.6,78.6
				c-48.2,0-74.6-28.6-74.6-78.6V-916.1z M1004.7-750.4c0,22.3,9.8,30.8,25.5,30.8c15.6,0,25.5-8.5,25.5-30.8v-168.8
				c0-22.3-9.8-30.8-25.5-30.8c-15.6,0-25.5,8.5-25.5,30.8V-750.4z"/>
		</g>
		<path class="st2" d="M1055.6-907.4v157c0,22.3-9.8,30.8-25.5,30.8c-15.6,0-25.5-8.5-25.5-30.8v-17.2h-49.1v14.1
			c0,50,26.3,78.6,74.6,78.6c48.2,0,74.6-28.6,74.6-78.6v-153.8H1055.6z"/>
		<g>
			
				<text transform="matrix(1 0 0 1 1209.574 -641.3174)" class="st2" style="font-family:'Roboto-Regular'; font-size:27.4691px; letter-spacing:5;">//DEVELOPER</text>
		</g>
		<g>
			<path class="st3" d="M1146.2-797.8c17.6,0,26.6,10.5,26.6,28.9v3.6h-17.1v-4.8c0-8.2-3.3-11.3-9-11.3c-5.8,0-9,3.1-9,11.3
				c0,8.4,3.6,14.6,15.5,25c15.1,13.3,19.9,22.9,19.9,36c0,18.4-9.2,28.9-27,28.9c-17.8,0-27-10.5-27-28.9v-7.1h17.1v8.2
				c0,8.2,3.6,11.2,9.4,11.2c5.8,0,9.4-3,9.4-11.2c0-8.4-3.6-14.6-15.5-25c-15.1-13.3-19.9-22.9-19.9-36
				C1119.5-787.2,1128.6-797.8,1146.2-797.8z"/>
			<path class="st3" d="M1181.9-768.8c0-18.4,9.7-28.9,27.5-28.9c17.8,0,27.5,10.5,27.5,28.9v59.8c0,18.4-9.7,28.9-27.5,28.9
				c-17.8,0-27.5-10.5-27.5-28.9V-768.8z M1199.9-707.8c0,8.2,3.6,11.3,9.4,11.3c5.8,0,9.4-3.1,9.4-11.3V-770
				c0-8.2-3.6-11.3-9.4-11.3c-5.8,0-9.4,3.1-9.4,11.3V-707.8z"/>
			<path class="st3" d="M1286.2-681.4c-1-3-1.6-4.8-1.6-14.1v-18.1c0-10.7-3.6-14.6-11.8-14.6h-6.2v46.9h-18.1v-115.1h27.3
				c18.7,0,26.8,8.7,26.8,26.5v9c0,11.8-3.8,19.4-11.8,23.2v0.3c9,3.8,12,12.3,12,24.3v17.8c0,5.6,0.2,9.7,2,14H1286.2z M1266.5-780
				v35.3h7.1c6.7,0,10.8-3,10.8-12.2v-11.3c0-8.2-2.8-11.8-9.2-11.8H1266.5z"/>
			<path class="st3" d="M1314.5-796.4h18.1v115.1h-18.1V-796.4z"/>
			<path class="st3" d="M1344.3-768.8c0-18.4,9.7-28.9,27.5-28.9c17.8,0,27.5,10.5,27.5,28.9v59.8c0,18.4-9.7,28.9-27.5,28.9
				c-17.8,0-27.5-10.5-27.5-28.9V-768.8z M1362.3-707.8c0,8.2,3.6,11.3,9.4,11.3c5.8,0,9.4-3.1,9.4-11.3V-770
				c0-8.2-3.6-11.3-9.4-11.3c-5.8,0-9.4,3.1-9.4,11.3V-707.8z"/>
		</g>
		<g>
			<path class="st2" d="M1139.9-791h-18.1v-115.1h18.1v49.3h20.5v-49.3h18.4V-791h-18.4v-49.3h-20.5V-791z"/>
			<path class="st2" d="M1190.6-878.5c0-18.4,9.7-28.9,27.5-28.9c17.8,0,27.5,10.5,27.5,28.9v59.8c0,18.4-9.7,28.9-27.5,28.9
				c-17.8,0-27.5-10.5-27.5-28.9V-878.5z M1208.6-817.5c0,8.2,3.6,11.3,9.4,11.3c5.8,0,9.4-3.1,9.4-11.3v-62.1
				c0-8.2-3.6-11.3-9.4-11.3c-5.8,0-9.4,3.1-9.4,11.3V-817.5z"/>
			<path class="st2" d="M1273.6-874.3h-0.3v83.3H1257v-115.1h22.7l18.2,68.9h0.3v-68.9h16.1V-791h-18.6L1273.6-874.3z"/>
		</g>
	</g>
	<rect x="1526" y="-847.7" style="fill:none;" width="436.4" height="89.4"/>
	<text transform="matrix(1 0 0 1 1526.0457 -829.421)"><tspan x="0" y="0" class="st2" style="font-family:'Roboto-Light'; font-size:24px; letter-spacing:4;">/*Hi,</tspan><tspan x="0" y="28.8" class="st2" style="font-family:'Roboto-Light'; font-size:24px; letter-spacing:4;">I’m Jhon Osorio</tspan><tspan x="0" y="57.6" class="st2" style="font-family:'Roboto-Light'; font-size:24px; letter-spacing:4;">Interactive Media Designer*/</tspan></text>
</g>
<path class="st3" d="M284.9-327.4v-151.8c0-22.3,9.8-30.8,25.5-30.8c15.6,0,25.5,8.5,25.5,30.8v11.8h49.1v-8.7
	c0-50-26.3-78.6-74.6-78.6c-48.2,0-74.6,28.6-74.6,78.6v148.7H284.9z"/>
<text transform="matrix(1 0 0 1 1268.2729 -502.6519)" class="st2" style="font-family:'Roboto-Light'; font-size:21px; letter-spacing:4;">Learn more about what I do</text>
<circle class="st4" cx="798.9" cy="-829.3" r="9.5"/>
<circle class="st5" cx="798.9" cy="-793.5" r="9.5"/>
<circle class="st5" cx="798.9" cy="-757.7" r="9.5"/>
<circle class="st5" cx="798.9" cy="-723.4" r="9.5"/>
<circle class="st5" cx="798.9" cy="-690.5" r="9.5"/>
<polyline class="st6" points="1411.4,-468.4 1435.4,-444.4 1460.9,-469.9 "/>
<g id="WXo9Hu.tif">
	<g>
		<path class="st3" d="M2037.9-1100.4c-5.2,0-10.3,0-15.5,0c0-10.3,0-20.7,0-31c5.2,0,10.4,0,15.6,0c0.6,0.1,1.1,0.1,1.7,0.2
			c3.9,0.6,6.8,2.9,7,7.3c0.1,2.6-0.6,4.9-3,6.3c-0.2,0.1-0.5,0.3-0.7,0.4c0.3,0.1,0.5,0.2,0.7,0.3c1.7,0.8,2.9,2.1,3.5,3.9
			c0.4,1.2,0.5,2.4,0.5,3.6c-0.1,4-3.1,7.5-7.1,8.3C2039.8-1100.7,2038.9-1100.5,2037.9-1100.4z M2029.6-1105.8c2.6,0,5,0.1,7.5,0
			c2.5-0.1,3.8-1.3,4.1-3.6c0.3-2.2-0.7-3.8-2.6-4.3c-0.6-0.2-1.3-0.3-2-0.3c-2.2,0-4.4,0-6.6,0c-0.1,0-0.3,0-0.4,0
			C2029.6-1111.3,2029.6-1108.6,2029.6-1105.8z M2029.6-1119.2c0.1,0,0.2,0,0.3,0c2.1,0,4.2,0,6.2,0c0.8,0,1.7-0.2,2.4-0.4
			c2.1-0.7,2.8-3.6,1.3-5.2c-0.3-0.3-0.8-0.6-1.2-0.7c-0.9-0.2-1.9-0.4-2.8-0.4c-2-0.1-4,0-6,0c-0.1,0-0.2,0-0.3,0.1
			C2029.6-1123.7,2029.6-1121.5,2029.6-1119.2z"/>
		<path class="st3" d="M2072.2-1110.8c-4.5,0-8.9,0-13.4,0c-0.9,0-1.8,0-2.7,0c-0.1,3.2,2,5.2,4.5,5.4c1.1,0.1,2.2,0.1,3.2-0.4
			c0.8-0.4,1.4-0.9,1.9-1.7c0.1-0.2,0.3-0.4,0.5-0.4c1.9,0,3.7,0,5.8,0c-0.3,0.8-0.5,1.6-0.9,2.2c-1.3,2.1-3.1,3.7-5.5,4.4
			c-3.4,1-6.6,0.9-9.8-0.7c-2.9-1.4-4.7-3.7-5.3-6.9c-0.5-2.9-0.5-5.8,0.5-8.7c1.4-3.9,4.3-6,8.4-6.5c2.2-0.3,4.4-0.2,6.5,0.7
			c3.6,1.4,5.4,4.2,6.1,7.9c0.1,0.6,0.2,1.1,0.2,1.7C2072.2-1112.7,2072.2-1111.8,2072.2-1110.8z M2066.1-1114.7
			c-0.2-3.1-2.5-5-5.5-4.7c-2.5,0.3-4.7,2.6-4.3,4.7C2059.6-1114.7,2062.8-1114.7,2066.1-1114.7z"/>
		<path class="st3" d="M2067.3-1130.1c0,1,0,2,0,3c-4.1,0-8.2,0-12.4,0c0-1,0-2,0-3C2059.1-1130.1,2063.2-1130.1,2067.3-1130.1z"/>
	</g>
</g>
<g id="_x37_nql5u.tif">
	<g>
		<path class="st3" d="M1977.5-1131.4c0.4,0,0.7,0,1.1,0c0.5,0.1,1.1,0.1,1.6,0.2c3.4,0.5,6.3,1.9,8.7,4.2c2.5,2.4,4,5.2,4.7,8.6
			c0.1,0.6,0.2,1.3,0.3,1.9c0,0.7,0,1.3,0,2c0,0.4-0.1,0.7-0.1,1.1c-0.6,4.3-2.6,7.8-6,10.5c-1.4,1.2-3.1,2-4.9,2.6
			c-0.1,0-0.2,0-0.3,0c-0.5-0.2-0.7-0.5-0.7-1c0-1.3,0-2.7,0-4c0-1.1-0.2-2.2-1-3c0.7-0.1,1.3-0.2,1.9-0.4c1.5-0.4,2.9-1.1,3.9-2.4
			c0.8-1.1,1.2-2.4,1.3-3.8c0.2-2,0-3.9-1.4-5.5c-0.1-0.1-0.1-0.3-0.1-0.4c0.4-1.3,0.3-2.5-0.2-3.8c0-0.1-0.2-0.2-0.3-0.2
			c-0.4,0-0.9,0-1.2,0.2c-0.9,0.4-1.8,0.8-2.6,1.3c-0.2,0.1-0.4,0.2-0.6,0.1c-0.6-0.1-1.2-0.3-1.8-0.3c-1.8-0.2-3.7-0.1-5.5,0.3
			c-0.1,0-0.3,0-0.5-0.1c-0.9-0.4-1.8-0.9-2.7-1.3c-0.4-0.2-0.8-0.2-1.3-0.2c-0.1,0-0.2,0.1-0.3,0.2c-0.5,1.2-0.6,2.5-0.2,3.7
			c0.1,0.3,0,0.4-0.1,0.6c-0.4,0.6-0.8,1.2-1.1,1.9c-0.5,1.3-0.4,2.6-0.2,3.9c0.2,1.3,0.6,2.6,1.6,3.6c1,1.1,2.4,1.8,3.9,2.1
			c0.5,0.1,1,0.2,1.6,0.3c-0.2,0.3-0.4,0.6-0.6,0.9c-0.1,0.3-0.2,0.7-0.3,1c0,0.1-0.1,0.2-0.2,0.2c-1.2,0.4-2.4,0.7-3.5-0.2
			c-0.4-0.4-0.8-0.9-1.1-1.3c-0.6-0.8-1.3-1.3-2.2-1.5c-0.3,0-0.5,0.1-0.8,0.2c0.1,0.2,0.2,0.5,0.4,0.7c0.3,0.3,0.7,0.5,0.9,0.8
			c0.4,0.6,0.7,1.2,1.1,1.8c0.2,0.5,0.5,0.9,1,1.2c1.1,0.7,2.4,0.7,3.6,0.6c0.2,0,0.4-0.1,0.7-0.1c0,0.9,0,1.8,0,2.7
			c0,0.5-0.2,0.9-0.7,1c-0.1,0-0.2,0-0.3,0c-0.1,0-0.2-0.1-0.4-0.1c-5.4-2-8.8-5.9-10.2-11.5c-0.2-0.8-0.3-1.6-0.4-2.4
			c0-0.7,0-1.5,0-2.2c0-0.1,0.1-0.2,0.1-0.2c0.3-3.4,1.5-6.4,3.7-8.9c2.4-2.8,5.5-4.6,9.2-5.3
			C1976-1131.3,1976.8-1131.3,1977.5-1131.4z"/>
	</g>
</g>
<g id="PXekgX.tif">
	<g>
		<path class="st3" d="M1913-1100.4c0-6.9,0-13.8,0-20.8c2.1,0,4.2,0,6.4,0c0,0.9,0,1.7,0,2.6c0,0,0.1,0,0.1,0
			c0.1-0.2,0.3-0.3,0.4-0.5c3-3.6,8.4-3.1,10.8-1.1c1.5,1.2,2.2,2.8,2.5,4.7c0.1,0.4,0.1,0.7,0.2,1.1c0,4.7,0,9.3,0,14
			c-2.2,0-4.4,0-6.6,0c0-3.7,0-7.4,0-11c0-0.9-0.2-1.7-0.5-2.5c-0.5-1.3-1.5-1.9-2.9-2c-1.4-0.1-2.6,0.4-3.2,1.8
			c-0.3,0.8-0.6,1.6-0.6,2.5c-0.1,3.8,0,7.6,0,11.3C1917.4-1100.4,1915.2-1100.4,1913-1100.4z"/>
		<path class="st3" d="M1902.4-1100.4c0-0.2,0-0.4,0-0.6c0-6.5,0-13,0-19.5c0-0.2,0-0.4,0-0.7c2.2,0,4.3,0,6.6,0
			c0,6.9,0,13.9,0,20.8C1906.8-1100.4,1904.6-1100.4,1902.4-1100.4z"/>
		<path class="st3" d="M1906.5-1131.4c0.8,0.3,1.6,0.6,2.2,1.3c1,1.2,1.2,2.8,0.6,4.1c-0.7,1.4-2.1,2.2-3.8,2.1
			c-1.5-0.1-2.8-1.1-3.3-2.5c-0.1-0.2-0.1-0.4-0.2-0.5c0-0.5,0-0.9,0-1.4c0.1-0.4,0.3-0.7,0.4-1.1c0.6-1.1,1.6-1.7,2.7-2
			C1905.6-1131.4,1906-1131.4,1906.5-1131.4z"/>
	</g>
</g>
<g id="_x37_jo9a8.tif">
	<g>
		<path class="st3" d="M2027.2-1100.4c-0.1,0-0.2,0-0.3,0c0,0-0.1,0-0.1,0c-0.6-0.1-1-0.4-1.2-1c-0.1-0.2-0.1-0.5-0.2-0.7
			c0-9.2,0-18.4,0-27.6c0,0,0-0.1,0-0.1c0.1-0.7,0.5-1.2,1.1-1.5c0.2-0.1,0.3-0.1,0.5-0.2c0.1,0,0.3,0,0.4,0c0,0,0,0,0,0
			c0.4,0,0.7,0.2,1,0.4c2,1.2,4,2.4,6,3.6c5.4,3.2,10.7,6.5,16.1,9.7c0.3,0.2,0.7,0.5,0.8,0.8c0.1,0.2,0.1,0.4,0.2,0.6
			c0,0.1,0,0.2,0,0.4c-0.1,0.2-0.1,0.4-0.2,0.5c-0.2,0.4-0.5,0.7-0.9,1c-7.3,4.4-14.6,8.8-21.9,13.3
			C2028.1-1100.7,2027.7-1100.5,2027.2-1100.4z M2027.7-1104.2c3.8-3.9,7.5-7.8,11.2-11.7c-3.7-3.9-7.5-7.8-11.2-11.7
			C2027.7-1119.9,2027.7-1112.1,2027.7-1104.2z M2044.6-1113.5c1.3-0.8,2.7-1.6,4-2.4c-1.4-0.8-2.7-1.6-4-2.4
			c-0.8,0.8-1.6,1.6-2.3,2.4C2043.1-1115.2,2043.8-1114.3,2044.6-1113.5z M2040.6-1114.2c-2.4,2.5-4.8,5-7.1,7.5c0,0,0,0,0,0
			c3-1.8,6-3.7,9-5.5C2041.9-1112.9,2041.3-1113.6,2040.6-1114.2z M2042.5-1119.7c-3-1.8-6-3.7-9-5.5c0,0,0,0,0,0
			c2.4,2.5,4.7,5,7.1,7.4C2041.3-1118.4,2041.9-1119,2042.5-1119.7z"/>
	</g>
</g>
<rect x="1526.4" y="-677.4" class="st7" width="431" height="36"/>
<rect x="1565.9" y="-669" style="fill:none;" width="352" height="25.2"/>
<text transform="matrix(1 0 0 1 1565.9458 -650.7515)" class="st3" style="font-family:'Roboto-Light'; font-size:24px; letter-spacing:4;">Want to work together?</text>
<g>
	<path class="st2" d="M100,87.3v157c0,22.3-9.8,30.8-25.5,30.8c-15.6,0-25.5-8.5-25.5-30.8V227H0v14.1c0,50,26.3,78.6,74.6,78.6
		c48.2,0,74.6-28.6,74.6-78.6V87.3H100z"/>
	<path class="st2" d="M184.3,203.7h-18.1V88.6h18.1v49.3h20.5V88.6h18.4v115.1h-18.4v-49.3h-20.5V203.7z"/>
	<path class="st2" d="M235,116.2c0-18.4,9.7-28.9,27.5-28.9c17.8,0,27.5,10.5,27.5,28.9v59.8c0,18.4-9.7,28.9-27.5,28.9
		c-17.8,0-27.5-10.5-27.5-28.9V116.2z M253,177.2c0,8.2,3.6,11.3,9.4,11.3c5.8,0,9.4-3.1,9.4-11.3v-62.1c0-8.2-3.6-11.3-9.4-11.3
		c-5.8,0-9.4,3.1-9.4,11.3V177.2z"/>
	<path class="st2" d="M318,120.4h-0.3v83.3h-16.3V88.6h22.7l18.2,68.9h0.3V88.6h16.1v115.1h-18.6L318,120.4z"/>
</g>
<rect x="1758.3" y="-1131.5" style="fill:none;" width="57.9" height="31"/>
<text transform="matrix(1 0 0 1 1758.3452 -1102.2485)"><tspan x="0" y="0" class="st3" style="font-family:'Roboto-Bold'; font-size:38.3336px;">C</tspan><tspan x="25.3" y="0" class="st3" style="font-family:'Roboto-Bold'; font-size:38.3336px; letter-spacing:7;">V</tspan></text>
</svg>
