<?xml version="1.0" encoding="utf-8"?>
<!-- Generator: Adobe Illustrator 21.1.0, SVG Export Plug-In . SVG Version: 6.00 Build 0)  -->
<svg version="1.1" id="Capa_1" xmlns="http://www.w3.org/2000/svg" xmlns:xlink="http://www.w3.org/1999/xlink" x="0px" y="0px"
	 viewBox="0 0 512.2 353.8" style="enable-background:new 0 0 512.2 353.8;" xml:space="preserve">
<style type="text/css">
	.st0{fill:#333A53;}
	.st1{fill:#050507;}
	.st2{fill:#FADFFD;}
	.st3{fill:#97C03D;}
	.st4{fill:#FFFFFF;}
</style>
<path class="st4" d="M49.1,227V75.5c0-22.3,9.8-30.8,25.5-30.8c15.6,0,25.5,8.5,25.5,30.8v11.8h49.1v-8.7c0-50-26.3-78.6-74.6-78.6
	C26.3,0,0,28.6,0,78.6V227H49.1z"/>
<g>
	<path class="st4" d="M267.3,333.3l-7.1,18h-1.7l7.1-18H267.3z"/>
	<path class="st4" d="M279.1,335.5l0.5,1.2l-2.6,0.9l1.6,2.2l-1,0.7l-1.7-2.3l-1.6,2.3l-1.1-0.7l1.6-2.2l-2.6-0.9l0.4-1.2l2.6,1
		v-2.7h1.3v2.7L279.1,335.5z"/>
	<path class="st4" d="M292.8,333.7c2.6,0,4.7,0.7,6.1,2c1.4,1.3,2.1,3.4,2.1,6.2c0,1.4-0.2,2.7-0.5,3.8c-0.3,1.1-0.8,2.1-1.5,2.8
		c-0.7,0.8-1.5,1.3-2.6,1.7c-1,0.4-2.3,0.6-3.7,0.6h-5.9v-17.2H292.8z M293,349c0.3,0,0.6,0,1-0.1c0.4,0,0.8-0.1,1.2-0.3
		c0.4-0.2,0.9-0.4,1.3-0.7c0.4-0.3,0.8-0.7,1.1-1.2c0.3-0.5,0.6-1.1,0.8-1.9c0.2-0.7,0.3-1.7,0.3-2.7c0-1-0.1-1.9-0.3-2.8
		c-0.2-0.8-0.5-1.5-1-2.1s-1-1-1.8-1.3c-0.7-0.3-1.6-0.4-2.7-0.4h-3.9V349H293z"/>
	<path class="st4" d="M320.5,333.7v1.9H311v5.5h8.9v1.9H311v6h9.7v1.9h-11.9v-17.2H320.5z"/>
	<path class="st4" d="M332.4,350.9l-6-17.2h2.5l4.9,14.9h0l5-14.9h2.4l-6.1,17.2H332.4z"/>
	<path class="st4" d="M359.6,333.7v1.9H350v5.5h8.9v1.9H350v6h9.7v1.9h-11.9v-17.2H359.6z"/>
	<path class="st4" d="M369.6,333.7V349h9.1v1.9h-11.4v-17.2H369.6z"/>
	<path class="st4" d="M385,338.9c0.3-1.1,0.9-2,1.6-2.9c0.7-0.8,1.5-1.5,2.6-2c1-0.5,2.2-0.7,3.6-0.7c1.4,0,2.6,0.2,3.6,0.7
		c1,0.5,1.9,1.2,2.6,2c0.7,0.8,1.2,1.8,1.6,2.9c0.3,1.1,0.5,2.2,0.5,3.4c0,1.2-0.2,2.3-0.5,3.4c-0.3,1.1-0.9,2-1.6,2.9
		c-0.7,0.8-1.5,1.5-2.6,2c-1,0.5-2.2,0.7-3.6,0.7c-1.4,0-2.6-0.2-3.6-0.7c-1-0.5-1.9-1.2-2.6-2c-0.7-0.8-1.2-1.8-1.6-2.9
		c-0.3-1.1-0.5-2.2-0.5-3.4C384.5,341.1,384.7,340,385,338.9z M387.1,344.9c0.2,0.8,0.6,1.6,1.1,2.3c0.5,0.7,1.1,1.2,1.9,1.6
		c0.8,0.4,1.7,0.6,2.7,0.6c1,0,1.9-0.2,2.7-0.6c0.8-0.4,1.4-1,1.9-1.6c0.5-0.7,0.8-1.4,1.1-2.3c0.2-0.8,0.3-1.7,0.3-2.6
		c0-0.9-0.1-1.7-0.3-2.6c-0.2-0.8-0.6-1.6-1.1-2.3c-0.5-0.7-1.1-1.2-1.9-1.6c-0.8-0.4-1.7-0.6-2.7-0.6c-1,0-1.9,0.2-2.7,0.6
		c-0.8,0.4-1.4,1-1.9,1.6c-0.5,0.7-0.8,1.4-1.1,2.3c-0.2,0.8-0.3,1.7-0.3,2.6C386.8,343.2,386.9,344,387.1,344.9z"/>
	<path class="st4" d="M416.1,333.7c1.7,0,3,0.4,3.9,1.3c0.9,0.9,1.3,2.1,1.3,3.7c0,1.6-0.4,2.9-1.3,3.8c-0.9,0.9-2.2,1.3-3.9,1.3
		h-5.3v7h-2.3v-17.2H416.1z M415.4,342c1.3,0,2.3-0.2,2.9-0.8c0.6-0.5,0.9-1.3,0.9-2.4c0-1-0.3-1.8-0.9-2.3
		c-0.6-0.5-1.6-0.8-2.9-0.8h-4.5v6.3H415.4z"/>
	<path class="st4" d="M440.9,333.7v1.9h-9.6v5.5h8.9v1.9h-8.9v6h9.7v1.9H429v-17.2H440.9z"/>
	<path class="st4" d="M456.7,333.7c1.6,0,2.9,0.4,3.8,1.2c0.9,0.8,1.4,1.9,1.4,3.3c0,1-0.2,2-0.7,2.7s-1.2,1.3-2.3,1.6v0
		c0.5,0.1,0.9,0.3,1.2,0.5c0.3,0.2,0.6,0.5,0.7,0.8c0.2,0.3,0.3,0.7,0.4,1s0.2,0.8,0.2,1.2c0,0.4,0.1,0.8,0.1,1.3
		c0,0.4,0.1,0.9,0.1,1.3c0.1,0.4,0.2,0.8,0.3,1.2c0.1,0.4,0.3,0.7,0.5,1h-2.6c-0.2-0.2-0.3-0.4-0.3-0.7c-0.1-0.3-0.1-0.6-0.1-1
		c0-0.4,0-0.8,0-1.2c0-0.4-0.1-0.9-0.1-1.3c-0.1-0.4-0.1-0.8-0.2-1.2c-0.1-0.4-0.2-0.7-0.5-1c-0.2-0.3-0.5-0.5-0.8-0.7
		c-0.3-0.2-0.8-0.3-1.3-0.3h-5.6v7.3h-2.3v-17.2H456.7z M457.1,341.5c0.5-0.1,0.9-0.2,1.3-0.5c0.4-0.2,0.7-0.5,0.9-0.9
		c0.2-0.4,0.3-0.9,0.3-1.5c0-0.9-0.2-1.6-0.7-2.1c-0.5-0.5-1.3-0.8-2.3-0.8h-5.7v6h4.8C456.2,341.6,456.7,341.6,457.1,341.5z"/>
	<path class="st4" d="M475.4,335.5l0.5,1.2l-2.6,0.9l1.6,2.2l-1,0.7l-1.7-2.3l-1.6,2.3l-1.1-0.7l1.6-2.2l-2.6-0.9l0.4-1.2l2.6,1
		v-2.7h1.3v2.7L475.4,335.5z"/>
	<path class="st4" d="M489.8,333.3l-7.1,18h-1.7l7.1-18H489.8z"/>
</g>
<g>
	<path class="st3" d="M204.5,196.9c17.6,0,26.6,10.5,26.6,28.9v3.6h-17.1v-4.8c0-8.2-3.3-11.3-9-11.3s-9,3.1-9,11.3
		c0,8.4,3.6,14.6,15.5,25c15.1,13.3,19.9,22.9,19.9,36c0,18.4-9.2,28.9-27,28.9c-17.8,0-27-10.5-27-28.9v-7.1h17.1v8.2
		c0,8.2,3.6,11.2,9.4,11.2s9.4-3,9.4-11.2c0-8.4-3.6-14.6-15.5-25c-15.1-13.3-19.9-22.9-19.9-36
		C177.9,207.5,186.9,196.9,204.5,196.9z"/>
	<path class="st3" d="M240.2,225.9c0-18.4,9.7-28.9,27.5-28.9c17.8,0,27.5,10.5,27.5,28.9v59.8c0,18.4-9.7,28.9-27.5,28.9
		c-17.8,0-27.5-10.5-27.5-28.9V225.9z M258.3,286.9c0,8.2,3.6,11.3,9.4,11.3s9.4-3.1,9.4-11.3v-62.1c0-8.2-3.6-11.3-9.4-11.3
		s-9.4,3.1-9.4,11.3V286.9z"/>
	<path class="st3" d="M344.6,313.3c-1-3-1.6-4.8-1.6-14.1v-18.1c0-10.7-3.6-14.6-11.8-14.6h-6.2v46.9h-18.1V198.3h27.3
		c18.7,0,26.8,8.7,26.8,26.5v9c0,11.8-3.8,19.4-11.8,23.2v0.3c9,3.8,12,12.3,12,24.3v17.8c0,5.6,0.2,9.7,2,14H344.6z M324.9,214.7
		V250h7.1c6.7,0,10.8-3,10.8-12.2v-11.3c0-8.2-2.8-11.8-9.2-11.8H324.9z"/>
	<path class="st3" d="M372.9,198.3H391v115.1h-18.1V198.3z"/>
	<path class="st3" d="M402.6,225.9c0-18.4,9.7-28.9,27.5-28.9c17.8,0,27.5,10.5,27.5,28.9v59.8c0,18.4-9.7,28.9-27.5,28.9
		c-17.8,0-27.5-10.5-27.5-28.9V225.9z M420.7,286.9c0,8.2,3.6,11.3,9.4,11.3c5.8,0,9.4-3.1,9.4-11.3v-62.1c0-8.2-3.6-11.3-9.4-11.3
		c-5.8,0-9.4,3.1-9.4,11.3V286.9z"/>
</g>
<path class="st3" d="M63.1,227.3V75.5c0-22.3,9.8-30.8,25.5-30.8c15.6,0,25.5,8.5,25.5,30.8v11.8h49.1v-8.7
	c0-50-26.3-78.6-74.6-78.6C40.3,0,14,28.6,14,78.6v148.7H63.1z"/>
</svg>
