<?xml version="1.0" encoding="utf-8"?>
<!-- Generator: Adobe Illustrator 21.1.0, SVG Export Plug-In . SVG Version: 6.00 Build 0)  -->
<svg version="1.1" id="Capa_1" xmlns="http://www.w3.org/2000/svg" xmlns:xlink="http://www.w3.org/1999/xlink" x="0px" y="0px"
	 viewBox="0 0 463.3 406" style="enable-background:new 0 0 463.3 406;" xml:space="preserve">
<style type="text/css">
	.st0{fill:#FFFFFF;}
</style>
<g>
	<path class="st0" d="M100.1,133.7v157c0,22.3-9.8,30.8-25.5,30.8c-15.6,0-25.5-8.5-25.5-30.8v-17.3h-49v14.1
		c0,50,26.3,78.6,74.6,78.6c48.2,0,74.6-28.6,74.6-78.6V133.7H100.1z"/>
	<path class="st0" d="M184.3,250.1h-18.1V135h18.1v49.3h20.5V135h18.4v115.1h-18.4v-49.3h-20.5V250.1z"/>
	<path class="st0" d="M235,162.6c0-18.4,9.7-28.9,27.5-28.9s27.5,10.5,27.5,28.9v59.8c0,18.4-9.7,28.9-27.5,28.9
		S235,240.8,235,222.4V162.6z M253,223.6c0,8.2,3.6,11.3,9.4,11.3s9.4-3.1,9.4-11.3v-62.1c0-8.2-3.6-11.3-9.4-11.3
		s-9.4,3.1-9.4,11.3V223.6z"/>
	<path class="st0" d="M318,166.8h-0.3v83.3h-16.3V135h22.7l18.2,68.9h0.3V135h16.1v115.1h-18.6L318,166.8z"/>
</g>
</svg>
