<?xml version="1.0" encoding="utf-8"?>
<!-- Generator: Adobe Illustrator 21.1.0, SVG Export Plug-In . SVG Version: 6.00 Build 0)  -->
<svg version="1.1" id="Capa_1" xmlns="http://www.w3.org/2000/svg" xmlns:xlink="http://www.w3.org/1999/xlink" x="0px" y="0px"
	 viewBox="0 0 463.3 406" style="enable-background:new 0 0 463.3 406;" xml:space="preserve">
<style type="text/css">
	.st0{fill:#FFFFFF;}
</style>
<g>
	<path class="st0" d="M271.2,380.6l-7.1,18h-1.7l7.1-18H271.2z"/>
	<path class="st0" d="M282.2,380.6l-7.1,18h-1.7l7.1-18H282.2z"/>
	<path class="st0" d="M293.6,381c2.6,0,4.7,0.7,6.1,2s2.1,3.4,2.1,6.2c0,1.4-0.2,2.7-0.5,3.8c-0.3,1.1-0.8,2.1-1.5,2.8
		c-0.7,0.8-1.5,1.3-2.6,1.7s-2.3,0.6-3.7,0.6h-5.9V381H293.6z M293.8,396.3c0.3,0,0.6,0,1-0.1c0.4,0,0.8-0.1,1.2-0.3
		c0.4-0.2,0.9-0.4,1.3-0.7c0.4-0.3,0.8-0.7,1.1-1.2c0.3-0.5,0.6-1.1,0.8-1.9c0.2-0.7,0.3-1.7,0.3-2.7s-0.1-1.9-0.3-2.8
		c-0.2-0.8-0.5-1.5-1-2.1s-1-1-1.8-1.3c-0.7-0.3-1.6-0.4-2.7-0.4H290v13.3h3.8V396.3z"/>
	<path class="st0" d="M321.4,381v1.9h-9.6v5.5h8.9v1.9h-8.9v6h9.7v1.9h-11.9V381H321.4z"/>
	<path class="st0" d="M333.2,398.2l-6-17.2h2.5l4.9,14.9l0,0l5-14.9h2.4l-6.1,17.2H333.2z"/>
	<path class="st0" d="M360.4,381v1.9h-9.6v5.5h8.9v1.9h-8.9v6h9.7v1.9h-11.9V381H360.4z"/>
	<path class="st0" d="M370.4,381v15.3h9.1v1.9h-11.4V381H370.4z"/>
	<path class="st0" d="M385.9,386.2c0.3-1.1,0.9-2,1.6-2.9c0.7-0.8,1.5-1.5,2.6-2c1-0.5,2.2-0.7,3.6-0.7s2.6,0.2,3.6,0.7
		s1.9,1.2,2.6,2s1.2,1.8,1.6,2.9c0.3,1.1,0.5,2.2,0.5,3.4c0,1.2-0.2,2.3-0.5,3.4s-0.9,2-1.6,2.9c-0.7,0.8-1.5,1.5-2.6,2
		c-1,0.5-2.2,0.7-3.6,0.7s-2.6-0.2-3.6-0.7s-1.9-1.2-2.6-2s-1.2-1.8-1.6-2.9c-0.3-1.1-0.5-2.2-0.5-3.4
		C385.4,388.4,385.5,387.3,385.9,386.2z M388,392.2c0.2,0.8,0.6,1.6,1.1,2.3c0.5,0.7,1.1,1.2,1.9,1.6s1.7,0.6,2.7,0.6
		s1.9-0.2,2.7-0.6c0.8-0.4,1.4-1,1.9-1.6c0.5-0.7,0.8-1.4,1.1-2.3c0.2-0.8,0.3-1.7,0.3-2.6s-0.1-1.7-0.3-2.6
		c-0.2-0.8-0.6-1.6-1.1-2.3c-0.5-0.7-1.1-1.2-1.9-1.6s-1.7-0.6-2.7-0.6s-1.9,0.2-2.7,0.6c-0.8,0.4-1.4,1-1.9,1.6
		c-0.5,0.7-0.8,1.4-1.1,2.3c-0.2,0.8-0.3,1.7-0.3,2.6C387.6,390.5,387.8,391.3,388,392.2z"/>
	<path class="st0" d="M417,381c1.7,0,3,0.4,3.9,1.3s1.3,2.1,1.3,3.7s-0.4,2.9-1.3,3.8s-2.2,1.3-3.9,1.3h-5.3v7h-2.3V381H417z
		 M416.2,389.3c1.3,0,2.3-0.2,2.9-0.8c0.6-0.5,0.9-1.3,0.9-2.4c0-1-0.3-1.8-0.9-2.3s-1.6-0.8-2.9-0.8h-4.5v6.3L416.2,389.3
		L416.2,389.3z"/>
	<path class="st0" d="M441.7,381v1.9h-9.6v5.5h8.9v1.9h-8.9v6h9.7v1.9h-11.9V381H441.7z"/>
	<path class="st0" d="M457.5,381c1.6,0,2.9,0.4,3.8,1.2c0.9,0.8,1.4,1.9,1.4,3.3c0,1-0.2,2-0.7,2.7c-0.5,0.8-1.2,1.3-2.3,1.6l0,0
		c0.5,0.1,0.9,0.3,1.2,0.5c0.3,0.2,0.6,0.5,0.7,0.8c0.2,0.3,0.3,0.7,0.4,1c0.1,0.4,0.2,0.8,0.2,1.2c0,0.4,0.1,0.8,0.1,1.3
		c0,0.4,0.1,0.9,0.1,1.3c0.1,0.4,0.2,0.8,0.3,1.2c0.1,0.4,0.3,0.7,0.5,1h-2.6c-0.2-0.2-0.3-0.4-0.3-0.7c-0.1-0.3-0.1-0.6-0.1-1
		s0-0.8,0-1.2c0-0.4-0.1-0.9-0.1-1.3c-0.1-0.4-0.1-0.8-0.2-1.2c-0.1-0.4-0.2-0.7-0.5-1c-0.2-0.3-0.5-0.5-0.8-0.7s-0.8-0.3-1.3-0.3
		h-5.6v7.3h-2.3v-17L457.5,381L457.5,381z M458,388.8c0.5-0.1,0.9-0.2,1.3-0.5c0.4-0.2,0.7-0.5,0.9-0.9c0.2-0.4,0.3-0.9,0.3-1.5
		c0-0.9-0.2-1.6-0.7-2.1s-1.3-0.8-2.3-0.8h-5.7v6h4.8C457,388.9,457.5,388.9,458,388.8z"/>
</g>
</svg>
