<?xml version="1.0" encoding="utf-8"?>
<!-- Generator: Adobe Illustrator 21.1.0, SVG Export Plug-In . SVG Version: 6.00 Build 0)  -->
<svg version="1.1" id="Capa_1" xmlns="http://www.w3.org/2000/svg" xmlns:xlink="http://www.w3.org/1999/xlink" x="0px" y="0px"
	 viewBox="0 0 491.9 324.6" style="enable-background:new 0 0 491.9 324.6;" xml:space="preserve">
<style type="text/css">
	.st0{fill:#050507;}
	.st1{fill:#333A53;}
	.st2{fill:#FFFFFF;}
	.st3{fill:#97C03D;}
	.st4{fill:#97C03D;stroke:#97C03D;stroke-width:2;stroke-miterlimit:10;}
	.st5{fill:none;stroke:#FFFFFF;stroke-width:2;stroke-miterlimit:10;}
	.st6{fill:none;stroke:#FFFFFF;stroke-width:5;stroke-miterlimit:10;}
	.st7{fill:none;stroke:#97C03D;stroke-width:2;stroke-miterlimit:10;}
</style>
<g>
	<path class="st2" d="M100,87.3v157c0,22.3-9.8,30.8-25.5,30.8c-15.6,0-25.5-8.5-25.5-30.8V227H0v14.1c0,50,26.3,78.6,74.6,78.6
		c48.2,0,74.6-28.6,74.6-78.6V87.3H100z"/>
	<path class="st2" d="M184.3,203.7h-18.1V88.6h18.1v49.3h20.5V88.6h18.4v115.1h-18.4v-49.3h-20.5V203.7z"/>
	<path class="st2" d="M235,116.2c0-18.4,9.7-28.9,27.5-28.9c17.8,0,27.5,10.5,27.5,28.9v59.8c0,18.4-9.7,28.9-27.5,28.9
		c-17.8,0-27.5-10.5-27.5-28.9V116.2z M253,177.2c0,8.2,3.6,11.3,9.4,11.3c5.8,0,9.4-3.1,9.4-11.3v-62.1c0-8.2-3.6-11.3-9.4-11.3
		c-5.8,0-9.4,3.1-9.4,11.3V177.2z"/>
	<path class="st2" d="M318,120.4h-0.3v83.3h-16.3V88.6h22.7l18.2,68.9h0.3V88.6h16.1v115.1h-18.6L318,120.4z"/>
</g>
</svg>
