<?xml version="1.0" encoding="utf-8"?>
<!-- Generator: Adobe Illustrator 21.1.0, SVG Export Plug-In . SVG Version: 6.00 Build 0)  -->
<svg version="1.1" id="Capa_1" xmlns="http://www.w3.org/2000/svg" xmlns:xlink="http://www.w3.org/1999/xlink" x="0px" y="0px"
	 viewBox="0 0 491.9 324.6" style="enable-background:new 0 0 491.9 324.6;" xml:space="preserve">
<style type="text/css">
	.st0{fill:#050507;}
	.st1{fill:#333A53;}
	.st2{fill:#FFFFFF;}
	.st3{fill:#97C03D;}
	.st4{fill:#97C03D;stroke:#97C03D;stroke-width:2;stroke-miterlimit:10;}
	.st5{fill:none;stroke:#FFFFFF;stroke-width:2;stroke-miterlimit:10;}
	.st6{fill:none;stroke:#FFFFFF;stroke-width:5;stroke-miterlimit:10;}
	.st7{fill:none;stroke:#97C03D;stroke-width:2;stroke-miterlimit:10;}
</style>
<g>
	<path class="st3" d="M49.1,227V75.5c0-22.3,9.8-30.8,25.5-30.8c15.6,0,25.5,8.5,25.5,30.8v11.8h49.1v-8.7c0-50-26.3-78.6-74.6-78.6
		C26.3,0,0,28.6,0,78.6V227H49.1z"/>
	<path class="st3" d="M190.6,196.9c17.6,0,26.6,10.5,26.6,28.9v3.6h-17.1v-4.8c0-8.2-3.3-11.3-9-11.3c-5.8,0-9,3.1-9,11.3
		c0,8.4,3.6,14.6,15.5,25c15.1,13.3,19.9,22.9,19.9,36c0,18.4-9.2,28.9-27,28.9c-17.8,0-27-10.5-27-28.9v-7.1h17.1v8.2
		c0,8.2,3.6,11.2,9.4,11.2s9.4-3,9.4-11.2c0-8.4-3.6-14.6-15.5-25c-15.1-13.3-19.9-22.9-19.9-36C163.9,207.5,173,196.9,190.6,196.9z
		"/>
	<path class="st3" d="M226.2,225.9c0-18.4,9.7-28.9,27.5-28.9c17.8,0,27.5,10.5,27.5,28.9v59.8c0,18.4-9.7,28.9-27.5,28.9
		c-17.8,0-27.5-10.5-27.5-28.9V225.9z M244.3,286.9c0,8.2,3.6,11.3,9.4,11.3s9.4-3.1,9.4-11.3v-62.1c0-8.2-3.6-11.3-9.4-11.3
		s-9.4,3.1-9.4,11.3V286.9z"/>
	<path class="st3" d="M330.6,313.3c-1-3-1.6-4.8-1.6-14.1v-18.1c0-10.7-3.6-14.6-11.8-14.6h-6.2v46.9h-18.1V198.3h27.3
		c18.7,0,26.8,8.7,26.8,26.5v9c0,11.8-3.8,19.4-11.8,23.2v0.3c9,3.8,12,12.3,12,24.3v17.8c0,5.6,0.2,9.7,2,14H330.6z M310.9,214.7
		V250h7.1c6.7,0,10.8-3,10.8-12.2v-11.3c0-8.2-2.8-11.8-9.2-11.8H310.9z"/>
	<path class="st3" d="M358.9,198.3H377v115.1h-18.1V198.3z"/>
	<path class="st3" d="M388.7,225.9c0-18.4,9.7-28.9,27.5-28.9s27.5,10.5,27.5,28.9v59.8c0,18.4-9.7,28.9-27.5,28.9
		s-27.5-10.5-27.5-28.9V225.9z M406.7,286.9c0,8.2,3.6,11.3,9.4,11.3c5.8,0,9.4-3.1,9.4-11.3v-62.1c0-8.2-3.6-11.3-9.4-11.3
		c-5.8,0-9.4,3.1-9.4,11.3V286.9z"/>
</g>
</svg>
