<?xml version="1.0" encoding="utf-8"?>
<!-- Generator: Adobe Illustrator 21.1.0, SVG Export Plug-In . SVG Version: 6.00 Build 0)  -->
<svg version="1.1" id="Capa_1" xmlns="http://www.w3.org/2000/svg" xmlns:xlink="http://www.w3.org/1999/xlink" x="0px" y="0px"
	 viewBox="0 0 463.3 351.6" style="enable-background:new 0 0 463.3 351.6;" xml:space="preserve">
<style type="text/css">
	.st0{fill:#050507;}
	.st1{fill:#333A53;}
	.st2{fill:#FFFFFF;}
	.st3{fill:#97C03D;}
	.st4{fill:#97C03D;stroke:#97C03D;stroke-width:2;stroke-miterlimit:10;}
	.st5{fill:none;stroke:#FFFFFF;stroke-width:2;stroke-miterlimit:10;}
	.st6{fill:none;stroke:#FFFFFF;stroke-width:5;stroke-miterlimit:10;}
	.st7{fill:none;stroke:#97C03D;stroke-width:2;stroke-miterlimit:10;}
</style>
<g>
	<g>
		<path class="st2" d="M271.2,333.6l-7.1,18h-1.7l7.1-18H271.2z"/>
		<path class="st2" d="M282.2,333.6l-7.1,18h-1.7l7.1-18H282.2z"/>
		<path class="st2" d="M293.6,334c2.6,0,4.7,0.7,6.1,2s2.1,3.4,2.1,6.2c0,1.4-0.2,2.7-0.5,3.8c-0.3,1.1-0.8,2.1-1.5,2.8
			c-0.7,0.8-1.5,1.3-2.6,1.7s-2.3,0.6-3.7,0.6h-5.9V334H293.6z M293.8,349.3c0.3,0,0.6,0,1-0.1c0.4,0,0.8-0.1,1.2-0.3
			c0.4-0.2,0.9-0.4,1.3-0.7c0.4-0.3,0.8-0.7,1.1-1.2c0.3-0.5,0.6-1.1,0.8-1.9c0.2-0.7,0.3-1.7,0.3-2.7c0-1-0.1-1.9-0.3-2.8
			c-0.2-0.8-0.5-1.5-1-2.1s-1-1-1.8-1.3c-0.7-0.3-1.6-0.4-2.7-0.4H290v13.3H293.8z"/>
		<path class="st2" d="M321.4,334v1.9h-9.6v5.5h8.9v1.9h-8.9v6h9.7v1.9h-11.9V334H321.4z"/>
		<path class="st2" d="M333.2,351.2l-6-17.2h2.5l4.9,14.9h0l5-14.9h2.4l-6.1,17.2H333.2z"/>
		<path class="st2" d="M360.4,334v1.9h-9.6v5.5h8.9v1.9h-8.9v6h9.7v1.9h-11.9V334H360.4z"/>
		<path class="st2" d="M370.4,334v15.3h9.1v1.9h-11.4V334H370.4z"/>
		<path class="st2" d="M385.9,339.2c0.3-1.1,0.9-2,1.6-2.9c0.7-0.8,1.5-1.5,2.6-2c1-0.5,2.2-0.7,3.6-0.7c1.4,0,2.6,0.2,3.6,0.7
			c1,0.5,1.9,1.2,2.6,2c0.7,0.8,1.2,1.8,1.6,2.9c0.3,1.1,0.5,2.2,0.5,3.4c0,1.2-0.2,2.3-0.5,3.4c-0.3,1.1-0.9,2-1.6,2.9
			c-0.7,0.8-1.5,1.5-2.6,2c-1,0.5-2.2,0.7-3.6,0.7c-1.4,0-2.6-0.2-3.6-0.7s-1.9-1.2-2.6-2c-0.7-0.8-1.2-1.8-1.6-2.9
			c-0.3-1.1-0.5-2.2-0.5-3.4C385.4,341.4,385.5,340.3,385.9,339.2z M388,345.2c0.2,0.8,0.6,1.6,1.1,2.3c0.5,0.7,1.1,1.2,1.9,1.6
			c0.8,0.4,1.7,0.6,2.7,0.6c1,0,1.9-0.2,2.7-0.6c0.8-0.4,1.4-1,1.9-1.6c0.5-0.7,0.8-1.4,1.1-2.3c0.2-0.8,0.3-1.7,0.3-2.6
			c0-0.9-0.1-1.7-0.3-2.6c-0.2-0.8-0.6-1.6-1.1-2.3c-0.5-0.7-1.1-1.2-1.9-1.6c-0.8-0.4-1.7-0.6-2.7-0.6c-1,0-1.9,0.2-2.7,0.6
			c-0.8,0.4-1.4,1-1.9,1.6c-0.5,0.7-0.8,1.4-1.1,2.3c-0.2,0.8-0.3,1.7-0.3,2.6C387.6,343.5,387.8,344.3,388,345.2z"/>
		<path class="st2" d="M417,334c1.7,0,3,0.4,3.9,1.3c0.9,0.9,1.3,2.1,1.3,3.7c0,1.6-0.4,2.9-1.3,3.8c-0.9,0.9-2.2,1.3-3.9,1.3h-5.3
			v7h-2.3V334H417z M416.2,342.3c1.3,0,2.3-0.2,2.9-0.8c0.6-0.5,0.9-1.3,0.9-2.4c0-1-0.3-1.8-0.9-2.3c-0.6-0.5-1.6-0.8-2.9-0.8h-4.5
			v6.3H416.2z"/>
		<path class="st2" d="M441.7,334v1.9h-9.6v5.5h8.9v1.9h-8.9v6h9.7v1.9h-11.9V334H441.7z"/>
		<path class="st2" d="M457.5,334c1.6,0,2.9,0.4,3.8,1.2c0.9,0.8,1.4,1.9,1.4,3.3c0,1-0.2,2-0.7,2.7c-0.5,0.8-1.2,1.3-2.3,1.6v0
			c0.5,0.1,0.9,0.3,1.2,0.5c0.3,0.2,0.6,0.5,0.7,0.8c0.2,0.3,0.3,0.7,0.4,1c0.1,0.4,0.2,0.8,0.2,1.2c0,0.4,0.1,0.8,0.1,1.3
			c0,0.4,0.1,0.9,0.1,1.3c0.1,0.4,0.2,0.8,0.3,1.2c0.1,0.4,0.3,0.7,0.5,1h-2.6c-0.2-0.2-0.3-0.4-0.3-0.7c-0.1-0.3-0.1-0.6-0.1-1
			c0-0.4,0-0.8,0-1.2c0-0.4-0.1-0.9-0.1-1.3c-0.1-0.4-0.1-0.8-0.2-1.2c-0.1-0.4-0.2-0.7-0.5-1c-0.2-0.3-0.5-0.5-0.8-0.7
			c-0.3-0.2-0.8-0.3-1.3-0.3h-5.6v7.3h-2.3V334H457.5z M458,341.8c0.5-0.1,0.9-0.2,1.3-0.5c0.4-0.2,0.7-0.5,0.9-0.9
			c0.2-0.4,0.3-0.9,0.3-1.5c0-0.9-0.2-1.6-0.7-2.1c-0.5-0.5-1.3-0.8-2.3-0.8h-5.7v6h4.8C457,341.9,457.5,341.9,458,341.8z"/>
	</g>
	<g>
		<path class="st3" d="M190.4,197.2c17.6,0,26.6,10.5,26.6,28.9v3.6h-17.1V225c0-8.2-3.3-11.3-9-11.3c-5.8,0-9,3.1-9,11.3
			c0,8.4,3.6,14.6,15.5,25c15.1,13.3,19.9,22.9,19.9,36c0,18.4-9.2,28.9-27,28.9c-17.8,0-27-10.5-27-28.9v-7.1h17.1v8.2
			c0,8.2,3.6,11.2,9.4,11.2s9.4-3,9.4-11.2c0-8.4-3.6-14.6-15.5-25c-15.1-13.3-19.9-22.9-19.9-36
			C163.7,207.8,172.8,197.2,190.4,197.2z"/>
		<path class="st3" d="M226,226.2c0-18.4,9.7-28.9,27.5-28.9c17.8,0,27.5,10.5,27.5,28.9V286c0,18.4-9.7,28.9-27.5,28.9
			c-17.8,0-27.5-10.5-27.5-28.9V226.2z M244.1,287.2c0,8.2,3.6,11.3,9.4,11.3s9.4-3.1,9.4-11.3V225c0-8.2-3.6-11.3-9.4-11.3
			s-9.4,3.1-9.4,11.3V287.2z"/>
		<path class="st3" d="M330.4,313.6c-1-3-1.6-4.8-1.6-14.1v-18.1c0-10.7-3.6-14.6-11.8-14.6h-6.2v46.9h-18.1V198.6h27.3
			c18.7,0,26.8,8.7,26.8,26.5v9c0,11.8-3.8,19.4-11.8,23.2v0.3c9,3.8,12,12.3,12,24.3v17.8c0,5.6,0.2,9.7,2,14H330.4z M310.7,215
			v35.3h7.1c6.7,0,10.8-3,10.8-12.2v-11.3c0-8.2-2.8-11.8-9.2-11.8H310.7z"/>
		<path class="st3" d="M358.7,198.6h18.1v115.1h-18.1V198.6z"/>
		<path class="st3" d="M388.5,226.2c0-18.4,9.7-28.9,27.5-28.9s27.5,10.5,27.5,28.9V286c0,18.4-9.7,28.9-27.5,28.9
			s-27.5-10.5-27.5-28.9V226.2z M406.5,287.2c0,8.2,3.6,11.3,9.4,11.3c5.8,0,9.4-3.1,9.4-11.3V225c0-8.2-3.6-11.3-9.4-11.3
			c-5.8,0-9.4,3.1-9.4,11.3V287.2z"/>
	</g>
	<g>
		<path class="st3" d="M49.1,227V75.5c0-22.3,9.8-30.8,25.5-30.8c15.6,0,25.5,8.5,25.5,30.8v11.8h49.1v-8.7
			c0-50-26.3-78.6-74.6-78.6C26.3,0,0,28.6,0,78.6V227H49.1z"/>
	</g>
</g>
</svg>
