<?xml version="1.0" encoding="utf-8"?>
<!-- Generator: Adobe Illustrator 21.1.0, SVG Export Plug-In . SVG Version: 6.00 Build 0)  -->
<svg version="1.1" id="Capa_1" xmlns="http://www.w3.org/2000/svg" xmlns:xlink="http://www.w3.org/1999/xlink" x="0px" y="0px"
	 viewBox="0 0 463.3 406" style="enable-background:new 0 0 463.3 406;" xml:space="preserve">
<style type="text/css">
	.st0{fill:#97C03D;}
</style>
<g>
	<path class="st0" d="M190.4,243.6c17.6,0,26.6,10.5,26.6,28.9v3.6h-17.1v-4.7c0-8.2-3.3-11.3-9-11.3c-5.8,0-9,3.1-9,11.3
		c0,8.4,3.6,14.6,15.5,25c15.1,13.3,19.9,22.9,19.9,36c0,18.4-9.2,28.9-27,28.9s-27-10.5-27-28.9v-7.1h17.1v8.2
		c0,8.2,3.6,11.2,9.4,11.2s9.4-3,9.4-11.2c0-8.4-3.6-14.6-15.5-25c-15.1-13.3-19.9-22.9-19.9-36
		C163.7,254.2,172.8,243.6,190.4,243.6z"/>
	<path class="st0" d="M226,272.6c0-18.4,9.7-28.9,27.5-28.9s27.5,10.5,27.5,28.9v59.8c0,18.4-9.7,28.9-27.5,28.9
		S226,350.8,226,332.4V272.6z M244.1,333.6c0,8.2,3.6,11.3,9.4,11.3s9.4-3.1,9.4-11.3v-62.2c0-8.2-3.6-11.3-9.4-11.3
		s-9.4,3.1-9.4,11.3V333.6z"/>
	<path class="st0" d="M330.4,360c-1-3-1.6-4.8-1.6-14.1v-18.1c0-10.7-3.6-14.6-11.8-14.6h-6.2v46.9h-18.1V245H320
		c18.7,0,26.8,8.7,26.8,26.5v9c0,11.8-3.8,19.4-11.8,23.2v0.3c9,3.8,12,12.3,12,24.3v17.8c0,5.6,0.2,9.7,2,14L330.4,360L330.4,360z
		 M310.7,261.4v35.3h7.1c6.7,0,10.8-3,10.8-12.2v-11.3c0-8.2-2.8-11.8-9.2-11.8H310.7z"/>
	<path class="st0" d="M358.7,245h18.1v115.1h-18.1V245z"/>
	<path class="st0" d="M388.5,272.6c0-18.4,9.7-28.9,27.5-28.9s27.5,10.5,27.5,28.9v59.8c0,18.4-9.7,28.9-27.5,28.9
		s-27.5-10.5-27.5-28.9V272.6z M406.5,333.6c0,8.2,3.6,11.3,9.4,11.3s9.4-3.1,9.4-11.3v-62.2c0-8.2-3.6-11.3-9.4-11.3
		s-9.4,3.1-9.4,11.3V333.6z"/>
</g>
</svg>
