<?xml version="1.0" encoding="utf-8"?>
<!-- Generator: Adobe Illustrator 21.1.0, SVG Export Plug-In . SVG Version: 6.00 Build 0)  -->
<svg version="1.1" id="Capa_1" xmlns="http://www.w3.org/2000/svg" xmlns:xlink="http://www.w3.org/1999/xlink" x="0px" y="0px"
	 viewBox="0 0 512.2 353.8" style="enable-background:new 0 0 512.2 353.8;" xml:space="preserve">
<style type="text/css">
	.st0{fill:#333A53;}
	.st1{fill:#050507;}
	.st2{fill:#FADFFD;}
	.st3{fill:#97C03D;}
	.st4{fill:#FFFFFF;}
</style>
<path class="st3" d="M100,87.3v157c0,22.3-9.8,30.8-25.5,30.8c-15.6,0-25.5-8.5-25.5-30.8V227H0v14.1c0,50,26.3,78.6,74.6,78.6
	c48.2,0,74.6-28.6,74.6-78.6V87.3H100z"/>
<path class="st4" d="M114,87.3v157c0,22.3-9.8,30.8-25.5,30.8c-15.6,0-25.5-8.5-25.5-30.8V227H14v14.1c0,50,26.3,78.6,74.6,78.6
	c48.2,0,74.6-28.6,74.6-78.6V87.3H114z"/>
<g>
	<path class="st4" d="M268.3,333.3l-7.1,18h-1.7l7.1-18H268.3z"/>
	<path class="st4" d="M280.1,335.5l0.5,1.2l-2.6,0.9l1.6,2.2l-1,0.7l-1.7-2.3l-1.6,2.3l-1.1-0.7l1.6-2.2l-2.6-0.9l0.4-1.2l2.6,1
		v-2.7h1.3v2.7L280.1,335.5z"/>
	<path class="st4" d="M293.8,333.7c2.6,0,4.7,0.7,6.1,2c1.4,1.3,2.1,3.4,2.1,6.2c0,1.4-0.2,2.7-0.5,3.8c-0.3,1.1-0.8,2.1-1.5,2.8
		c-0.7,0.8-1.5,1.3-2.6,1.7c-1,0.4-2.3,0.6-3.7,0.6h-5.9v-17.2H293.8z M294,349c0.3,0,0.6,0,1-0.1c0.4,0,0.8-0.1,1.2-0.3
		c0.4-0.2,0.9-0.4,1.3-0.7c0.4-0.3,0.8-0.7,1.1-1.2c0.3-0.5,0.6-1.1,0.8-1.9c0.2-0.7,0.3-1.7,0.3-2.7c0-1-0.1-1.9-0.3-2.8
		c-0.2-0.8-0.5-1.5-1-2.1s-1-1-1.8-1.3c-0.7-0.3-1.6-0.4-2.7-0.4h-3.9V349H294z"/>
	<path class="st4" d="M321.5,333.7v1.9H312v5.5h8.9v1.9H312v6h9.7v1.9h-11.9v-17.2H321.5z"/>
	<path class="st4" d="M333.4,350.9l-6-17.2h2.5l4.9,14.9h0l5-14.9h2.4l-6.1,17.2H333.4z"/>
	<path class="st4" d="M360.6,333.7v1.9H351v5.5h8.9v1.9H351v6h9.7v1.9h-11.9v-17.2H360.6z"/>
	<path class="st4" d="M370.6,333.7V349h9.1v1.9h-11.4v-17.2H370.6z"/>
	<path class="st4" d="M386,338.9c0.3-1.1,0.9-2,1.6-2.9c0.7-0.8,1.5-1.5,2.6-2c1-0.5,2.2-0.7,3.6-0.7c1.4,0,2.6,0.2,3.6,0.7
		c1,0.5,1.9,1.2,2.6,2c0.7,0.8,1.2,1.8,1.6,2.9c0.3,1.1,0.5,2.2,0.5,3.4c0,1.2-0.2,2.3-0.5,3.4c-0.3,1.1-0.9,2-1.6,2.9
		c-0.7,0.8-1.5,1.5-2.6,2c-1,0.5-2.2,0.7-3.6,0.7c-1.4,0-2.6-0.2-3.6-0.7c-1-0.5-1.9-1.2-2.6-2c-0.7-0.8-1.2-1.8-1.6-2.9
		c-0.3-1.1-0.5-2.2-0.5-3.4C385.5,341.1,385.7,340,386,338.9z M388.1,344.9c0.2,0.8,0.6,1.6,1.1,2.3c0.5,0.7,1.1,1.2,1.9,1.6
		c0.8,0.4,1.7,0.6,2.7,0.6c1,0,1.9-0.2,2.7-0.6c0.8-0.4,1.4-1,1.9-1.6c0.5-0.7,0.8-1.4,1.1-2.3c0.2-0.8,0.3-1.7,0.3-2.6
		c0-0.9-0.1-1.7-0.3-2.6c-0.2-0.8-0.6-1.6-1.1-2.3c-0.5-0.7-1.1-1.2-1.9-1.6c-0.8-0.4-1.7-0.6-2.7-0.6c-1,0-1.9,0.2-2.7,0.6
		c-0.8,0.4-1.4,1-1.9,1.6c-0.5,0.7-0.8,1.4-1.1,2.3c-0.2,0.8-0.3,1.7-0.3,2.6C387.8,343.2,387.9,344,388.1,344.9z"/>
	<path class="st4" d="M417.1,333.7c1.7,0,3,0.4,3.9,1.3c0.9,0.9,1.3,2.1,1.3,3.7c0,1.6-0.4,2.9-1.3,3.8c-0.9,0.9-2.2,1.3-3.9,1.3
		h-5.3v7h-2.3v-17.2H417.1z M416.4,342c1.3,0,2.3-0.2,2.9-0.8c0.6-0.5,0.9-1.3,0.9-2.4c0-1-0.3-1.8-0.9-2.3
		c-0.6-0.5-1.6-0.8-2.9-0.8h-4.5v6.3H416.4z"/>
	<path class="st4" d="M441.9,333.7v1.9h-9.6v5.5h8.9v1.9h-8.9v6h9.7v1.9H430v-17.2H441.9z"/>
	<path class="st4" d="M457.7,333.7c1.6,0,2.9,0.4,3.8,1.2c0.9,0.8,1.4,1.9,1.4,3.3c0,1-0.2,2-0.7,2.7s-1.2,1.3-2.3,1.6v0
		c0.5,0.1,0.9,0.3,1.2,0.5c0.3,0.2,0.6,0.5,0.7,0.8c0.2,0.3,0.3,0.7,0.4,1s0.2,0.8,0.2,1.2c0,0.4,0.1,0.8,0.1,1.3
		c0,0.4,0.1,0.9,0.1,1.3c0.1,0.4,0.2,0.8,0.3,1.2c0.1,0.4,0.3,0.7,0.5,1h-2.6c-0.2-0.2-0.3-0.4-0.3-0.7c-0.1-0.3-0.1-0.6-0.1-1
		c0-0.4,0-0.8,0-1.2c0-0.4-0.1-0.9-0.1-1.3c-0.1-0.4-0.1-0.8-0.2-1.2c-0.1-0.4-0.2-0.7-0.5-1c-0.2-0.3-0.5-0.5-0.8-0.7
		c-0.3-0.2-0.8-0.3-1.3-0.3h-5.6v7.3h-2.3v-17.2H457.7z M458.1,341.5c0.5-0.1,0.9-0.2,1.3-0.5c0.4-0.2,0.7-0.5,0.9-0.9
		c0.2-0.4,0.3-0.9,0.3-1.5c0-0.9-0.2-1.6-0.7-2.1c-0.5-0.5-1.3-0.8-2.3-0.8h-5.7v6h4.8C457.2,341.6,457.7,341.6,458.1,341.5z"/>
	<path class="st4" d="M476.4,335.5l0.5,1.2l-2.6,0.9l1.6,2.2l-1,0.7l-1.7-2.3l-1.6,2.3l-1.1-0.7l1.6-2.2l-2.6-0.9l0.4-1.2l2.6,1
		v-2.7h1.3v2.7L476.4,335.5z"/>
	<path class="st4" d="M490.8,333.3l-7.1,18h-1.7l7.1-18H490.8z"/>
</g>
<g>
	<path class="st4" d="M198.3,203.7h-18.1V88.6h18.1v49.3h20.5V88.6h18.4v115.1h-18.4v-49.3h-20.5V203.7z"/>
	<path class="st4" d="M248.9,116.2c0-18.4,9.7-28.9,27.5-28.9c17.8,0,27.5,10.5,27.5,28.9v59.8c0,18.4-9.7,28.9-27.5,28.9
		c-17.8,0-27.5-10.5-27.5-28.9V116.2z M267,177.2c0,8.2,3.6,11.3,9.4,11.3c5.8,0,9.4-3.1,9.4-11.3v-62.1c0-8.2-3.6-11.3-9.4-11.3
		c-5.8,0-9.4,3.1-9.4,11.3V177.2z"/>
	<path class="st4" d="M331.9,120.4h-0.3v83.3h-16.3V88.6H338l18.2,68.9h0.3V88.6h16.1v115.1h-18.6L331.9,120.4z"/>
</g>
</svg>
